<?xml version="1.0" encoding="iso-8859-1"?>
<!-- Generator: Adobe Illustrator 19.2.0, SVG Export Plug-In . SVG Version: 6.00 Build 0)  -->
<svg version="1.1" id="Layer_1" xmlns="http://www.w3.org/2000/svg" xmlns:xlink="http://www.w3.org/1999/xlink" x="0px" y="0px"
	 viewBox="0 0 600 600" enable-background="new 0 0 600 600" xml:space="preserve">
<g>
	<g>
		<g>
			<g>
				
					<linearGradient id="SVGID_1_" gradientUnits="userSpaceOnUse" x1="215.2958527" y1="155.3875275" x2="398.8337708" y2="589.2044067">
					<stop  offset="0" style="stop-color:#F7D963"/>
					<stop  offset="0.5179487" style="stop-color:#CD3648"/>
					<stop  offset="1" style="stop-color:#A83A7A"/>
				</linearGradient>
				<path fill="url(#SVGID_1_)" d="M579.0552979,379.0727539l-54.0749512,101.6028137
					c-2.8074951,5.2612305-6.2402954,10.1803284-10.2039185,14.5803833
					c-6.4290771,7.1133118-14.2737427,12.846344-23.1210632,16.408905
					c-47.1858215,18.6855469-95.1029663,35.2949829-143.7515259,49.8045654
					c-48.6603394,14.5332642-98.0520782,26.9667358-148.1869812,37.3239746
					c-14.81633,2.9727173-31.0364532,0.3067627-45.4871063-6.3936157
					c-16.3380585-7.5733032-30.4112091-20.3135376-37.5952759-35.8494263
					c-29.2080154-64.0665283-54.428833-129.3126831-75.6624451-195.7503052
					c-9.7202606-30.3640442-18.6029491-60.9994507-26.6481361-91.8825378
					c-2.80756-11.0414734-2.3003216-22.73172,0.8611183-33.7496338c1.4155884-4.9190979,3.3619595-9.7084503,5.7684803-14.238327
					l54.0631409-101.6028137c29.6562195,15.8426208,57.8497696,30.7415466,84.8871994,44.8972778
					c51.3499756,26.8959656,98.5239563,51.1140289,143.5038452,74.0109863
					C398.9116821,286.8599243,484.5185242,329.5041199,579.0552979,379.0727539z"/>
			</g>
		</g>
		
			<linearGradient id="SVGID_2_" gradientUnits="userSpaceOnUse" x1="55.9032478" y1="181.4950867" x2="118.2943115" y2="352.7869263">
			<stop  offset="0" style="stop-color:#FFF8B5"/>
			<stop  offset="1" style="stop-color:#E5A65E"/>
		</linearGradient>
		<path fill="url(#SVGID_2_)" d="M116.0564651,141.1501617L18.1695518,283.3917542
			c-1.3094597-4.8247681-2.5834246-9.6494751-3.8456535-14.4742432
			c-4.0697889-15.9723816-1.1796446-33.3013611,6.6295986-47.9879608l54.0631409-101.6028137
			C89.0072098,126.8057175,102.6792603,134.0722961,116.0564651,141.1501617z"/>
		
			<linearGradient id="SVGID_3_" gradientUnits="userSpaceOnUse" x1="69.1685486" y1="176.6633606" x2="131.5596161" y2="347.9552002">
			<stop  offset="0" style="stop-color:#FFF8B5"/>
			<stop  offset="1" style="stop-color:#E5A65E"/>
		</linearGradient>
		<path fill="url(#SVGID_3_)" d="M159.9038391,164.2240143L40.9720345,360.8000488
			c-4.4236679-13.8136597-8.6703606-27.6862183-12.7401485-41.6178284l114.7676239-163.8290863
			C148.6854095,158.349411,154.3241425,161.2985229,159.9038391,164.2240143z"/>
		
			<linearGradient id="SVGID_4_" gradientUnits="userSpaceOnUse" x1="206.1089172" y1="282.7112732" x2="406.3874207" y2="536.0046997">
			<stop  offset="0.0153846" style="stop-color:#AA3335;stop-opacity:0"/>
			<stop  offset="1" style="stop-color:#90246F"/>
		</linearGradient>
		<path fill="url(#SVGID_4_)" d="M579.0504761,379.0750732l-54.072876,101.6042175
			c-7.3311768,13.7829285-19.0053711,25.2149048-33.3266907,30.9847107
			c-3.9572144,1.5703125-7.9234009,3.1226807-11.8985291,4.6571045
			c-43.3318787,16.8069458-87.282959,31.8551025-131.8531494,45.1535034
			c-36.2250366,10.8127441-72.8628845,20.4769287-109.90448,28.9746094
			c-12.7151642,2.9163208-25.4661255,5.697998-38.2799835,8.3451538
			c-14.8148651,2.9701538-31.0384827,0.3051147-45.4854584-6.3979492L303.40979,238.2397003
			c19.0412903,9.6911011,37.6787109,19.1489716,56.0828857,28.4632111
			c64.4998169,32.6716309,125.9936218,63.6742249,190.9151611,97.4316406
			C559.8746338,369.0429688,569.413208,374.0231018,579.0504761,379.0750732z"/>
		
			<linearGradient id="SVGID_5_" gradientUnits="userSpaceOnUse" x1="250.0263519" y1="290.2927246" x2="415.5649719" y2="505.0012207">
			<stop  offset="0.0153846" style="stop-color:#9A2529;stop-opacity:0"/>
			<stop  offset="1" style="stop-color:#802561"/>
		</linearGradient>
		<path fill="url(#SVGID_5_)" d="M550.4078369,364.134552l-70.6554565,152.186554
			c-43.3318787,16.8069458-87.282959,31.8551025-131.8531494,45.1535034
			c-36.2250366,10.8127441-72.8628845,20.4769287-109.90448,28.9746094
			c34.8790588-87.5610962,97.8892822-249.6361694,121.4979248-323.7463074
			C423.9924927,299.3745422,485.4862976,330.3771362,550.4078369,364.134552z"/>
		<linearGradient id="SVGID_6_" gradientUnits="userSpaceOnUse" x1="191.147644" y1="598.684082" x2="226.9384308" y2="485.507843">
			<stop  offset="0" style="stop-color:#D4E7D8"/>
			<stop  offset="1" style="stop-color:#E5A65E;stop-opacity:0"/>
		</linearGradient>
		<path fill="url(#SVGID_6_)" d="M514.7764282,495.2559509c-6.4290771,7.1133118-14.2737427,12.846344-23.1210632,16.408905
			c-47.1858215,18.6855469-95.1029663,35.2949829-143.7515259,49.8045654
			c-48.6603394,14.5332642-98.0520782,26.9667358-148.1869812,37.3239746
			c-14.81633,2.9727173-31.0364532,0.3067627-45.4871063-6.3936157
			c-16.3380585-7.5733032-30.4112091-20.3135376-37.5952759-35.8494263
			c-29.2080154-64.0665283-54.428833-129.3126831-75.6624451-195.7503052
			c-9.7202606-30.3640442-18.6029491-60.9994507-26.6481361-91.8825378
			c-2.80756-11.0414734-2.3003216-22.73172,0.8611183-33.7496338
			c22.035759,84.7102966,79.602417,271.3183289,118.5189667,315.7909241
			c41.6885986,47.6340942,88.1312256,29.774231,151.2540283,14.2855225
			C340.8024292,551.548645,464.6886902,521.0784302,514.7764282,495.2559509z"/>
	</g>
	<g>
		<g>
			
				<linearGradient id="SVGID_7_" gradientUnits="userSpaceOnUse" x1="222.9764557" y1="459.4791565" x2="431.7851563" y2="37.5341072">
				<stop  offset="0" style="stop-color:#F7D963"/>
				<stop  offset="0.5179487" style="stop-color:#CD3648"/>
				<stop  offset="1" style="stop-color:#A83A7A"/>
			</linearGradient>
			<path fill="url(#SVGID_7_)" d="M587.1358032,353.0615845c-2.6305542,24.4186707-18.6737061,47.8345947-41.4172974,57.0004578
				c0,0,0,0-0.0353394,0.0118103c-47.162262,18.6737976-95.067627,35.2713318-143.7161865,49.7927551
				s-98.0402527,26.9549255-148.1751709,37.3239746c-31.5791168,6.3346863-69.5518799-12.9642639-83.0823822-42.2548828
				C128.1478271,361.5903931,94.0442505,265.7088928,68.3987808,167.314682
				c-0.5898209-2.3120575-1.0262833-4.6713562-1.3330078-7.0306396
				c-1.9817886-15.3708038,1.9700623-31.4611053,10.1803436-44.8383102c0.023613-0.0354233,0.0472336-0.0825882,0.0707779-0.1179352
				c2.4536819-4.0108261,5.2965927-7.762085,8.4816437-11.1948929c3.149704-3.3973846,6.6178665-6.4644318,10.3691254-9.1186295
				c3.7866135-2.6778183,7.8800201-4.9309082,12.1856842-6.6767578
				c47.174057-18.6738052,95.0912323-35.2832222,143.7515869-49.8046494s98.0520782-26.9666634,148.1869659-37.3239822
				c31.5673218-6.3464956,69.5282898,12.9643574,83.0823975,42.243084
				c32.0155945,70.2479095,59.2535095,141.9230804,81.6903992,215.0138855
				c1.7105103,5.5797119,3.3973999,11.1594849,5.0488281,16.7509766
				c4.2467651,14.3091125,8.3047485,28.6771851,12.185791,43.1042175c1.1442871,4.2467651,2.2766724,8.505249,3.3855591,12.7637634
				C587.5015259,338.2570496,587.9262085,345.7006226,587.1358032,353.0615845z"/>
		</g>
		
			<linearGradient id="SVGID_8_" gradientUnits="userSpaceOnUse" x1="307.8589172" y1="277.892395" x2="406.0046692" y2="28.0668755">
			<stop  offset="0.0153846" style="stop-color:#AA3335;stop-opacity:0"/>
			<stop  offset="1" style="stop-color:#D985B2"/>
		</linearGradient>
		<path fill="url(#SVGID_8_)" d="M582.2993164,318.3210449c-24.8669434-68.9502716-101.6499939-162.7791901-194.5824585-205.7654572
			c-104.2688293-48.2238922-213.7633972-37.7957993-301.918335-8.4226837
			c3.149704-3.3973846,6.6178665-6.4644318,10.3691254-9.1186295c3.7866135-2.6778183,7.8800201-4.9309082,12.1856842-6.6767578
			c47.174057-18.6738052,95.0912323-35.2832222,143.7515869-49.8046494s98.0520782-26.9666634,148.1869659-37.3239822
			c31.5673218-6.3464956,69.5282898,12.9643574,83.0823975,42.243084
			c11.8082581,25.9050255,22.9558411,51.9987679,33.4546814,78.2812805
			c8.5996094,21.5049057,16.7509766,43.1278152,24.4658203,64.8804703
			c8.4463501,23.7934265,16.3735352,47.7519989,23.7698975,71.8521271
			c1.7105103,5.5797119,3.3973999,11.1594849,5.0488281,16.7509766
			C574.3602905,289.5259399,578.4182739,303.8940125,582.2993164,318.3210449z"/>
		
			<linearGradient id="SVGID_9_" gradientUnits="userSpaceOnUse" x1="342.8547058" y1="104.3883743" x2="353.3050842" y2="33.1709137">
			<stop  offset="0" style="stop-color:#A9352E;stop-opacity:0"/>
			<stop  offset="1" style="stop-color:#912970"/>
		</linearGradient>
		<path fill="url(#SVGID_9_)" d="M376.0195923,51.8230858c1.9988403,6.8767242-8.2835083,15.9111214-22.9662476,20.1788902
			c-14.6827087,4.2677689-28.2058105,2.1527863-30.2046204-4.7239304
			c-1.9988403-6.8767281,8.2835083-15.9111214,22.9662476-20.1788902
			C360.4976807,42.8313866,374.0207825,44.9463615,376.0195923,51.8230858z"/>
		
			<linearGradient id="SVGID_10_" gradientUnits="userSpaceOnUse" x1="192.6367035" y1="130.5289154" x2="203.8611908" y2="95.6942825">
			<stop  offset="0" style="stop-color:#A9352E;stop-opacity:0"/>
			<stop  offset="1" style="stop-color:#912970"/>
		</linearGradient>
		<path fill="url(#SVGID_10_)" d="M229.3400116,91.4011307c1.9988403,6.8767242-8.2835083,15.9111176-22.9662323,20.1788864
			c-14.6827393,4.2677689-28.2058105,2.1527939-30.2046509-4.7239304
			c-1.9988251-6.8767242,8.2835083-15.9111176,22.9662476-20.1788864S227.3411865,84.5244064,229.3400116,91.4011307z"/>
		
			<linearGradient id="SVGID_11_" gradientUnits="userSpaceOnUse" x1="199.037262" y1="480.1765442" x2="245.3826599" y2="395.9824219">
			<stop  offset="0" style="stop-color:#D4E7D8"/>
			<stop  offset="1" style="stop-color:#E5A65E;stop-opacity:0"/>
		</linearGradient>
		<path fill="url(#SVGID_11_)" d="M545.6878662,410.0686951c-47.1724243,18.6823425-95.0717163,35.2738953-143.7157288,49.7926331
			c-48.6530457,14.52771-98.0508728,26.9646912-148.1844788,37.3287964
			c-31.5769043,6.3351135-69.5427856-12.9663696-83.0834503-42.255127
			c-42.5512085-93.3488159-76.6585846-189.2281494-102.3041306-287.6199341
			c-0.5922623-2.3151245-1.0319443-4.6661072-1.337059-7.0260773
			c18.5208282,66.0791168,92.3887329,265.0612183,118.2765656,298.5135193
			c29.7015381,38.3696594,65.5945892,32.1781006,126.2448273,18.5656738
			C371.7591248,463.8544312,543.0228271,410.8942261,545.6878662,410.0686951z"/>
		
			<linearGradient id="SVGID_12_" gradientUnits="userSpaceOnUse" x1="216.1264648" y1="489.5834656" x2="262.4718628" y2="405.3893127">
			<stop  offset="0" style="stop-color:#D4E7D8"/>
			<stop  offset="1" style="stop-color:#E5A65E;stop-opacity:0"/>
		</linearGradient>
		<path fill="url(#SVGID_12_)" d="M231.5580139,443.6216125c-36.644928-12.0603638-45.4809265,15.9797974-2.4584351,30.7303467
			C272.1220703,489.1025391,280.111969,459.6014099,231.5580139,443.6216125z"/>
		
			<linearGradient id="SVGID_13_" gradientUnits="userSpaceOnUse" x1="309.4917908" y1="328.4542847" x2="377.3508606" y2="153.0782013">
			<stop  offset="0" style="stop-color:#A9352E;stop-opacity:0"/>
			<stop  offset="1" style="stop-color:#912970"/>
		</linearGradient>
		<path fill="url(#SVGID_13_)" d="M201.3991547,204.7845917c7.0990906-21.2973022,59.1591644-37.0730743,118.3183441-51.2712708
			c59.1591492-14.1982117,74.9349365-4.7327423,86.7667542,17.3533478
			c11.8318481,22.0860901,35.4955139,89.921936,39.4394531,117.529541s2.3663635,40.228241-7.0990906,56.0040283
			c-9.4654846,15.7757568,50.4824829-9.4654846,52.0600586-46.5385437s-34.7066956-165.6456757-61.5255432-178.2662964
			c-26.8188171-12.6206207-93.8658752-18.1421432-121.4734802-9.4654617s-78.878891,29.9739685-85.9779816,33.917923
			c-7.0991058,3.9439392-25.2412567,26.0300293-25.2412567,33.917923
			C196.6664124,185.853653,201.3991547,204.7845917,201.3991547,204.7845917z"/>
		
			<linearGradient id="SVGID_14_" gradientUnits="userSpaceOnUse" x1="320.8099976" y1="287.164093" x2="349.6966248" y2="212.5090332">
			<stop  offset="0" style="stop-color:#A9352E;stop-opacity:0"/>
			<stop  offset="1" style="stop-color:#912970"/>
		</linearGradient>
		<path fill="url(#SVGID_14_)" d="M276.5820923,249.4321442c20.5553894-30.2606354,58.2473145-30.1826935,75.7214966-13.2380219
			c17.4742126,16.9446716,19.0627747,34.9483948,12.7085266,51.8930664s39.1845398-30.7122192,29.6531677-57.1882782
			s-38.6550293-43.9502411-55.5997009-41.3026276c-16.9446716,2.6475983-40.2435913,9.0018463-44.4797668,14.8265839
			C290.3496399,210.2475891,276.5820923,249.4321442,276.5820923,249.4321442z"/>
		
			<linearGradient id="SVGID_15_" gradientUnits="userSpaceOnUse" x1="291.7064514" y1="357.0899353" x2="327.3085938" y2="265.0792236">
			<stop  offset="0" style="stop-color:#A9352E;stop-opacity:0"/>
			<stop  offset="1" style="stop-color:#912970"/>
		</linearGradient>
		<path fill="url(#SVGID_15_)" d="M266.5212097,218.1904144c-15.8856354,19.5922699-24.8874969,49.7749786-15.3561096,81.5462189
			c9.5313721,31.7712708,64.0720215,65.1311035,106.9632263,42.8912048
			c42.8912048-22.2398682,48.1864014-75.1919861,48.1864014-75.1919861s-24.3579407,46.0683289-61.953949,42.8912048
			s-70.9558105-33.3598022-73.0738831-40.7731018C269.1687927,262.1406555,266.5212097,218.1904144,266.5212097,218.1904144z"/>
		
			<linearGradient id="SVGID_16_" gradientUnits="userSpaceOnUse" x1="252.2108612" y1="498.6081238" x2="287.971344" y2="373.0103455">
			<stop  offset="0" style="stop-color:#F7D963"/>
			<stop  offset="1" style="stop-color:#D67258"/>
		</linearGradient>
		<path fill="url(#SVGID_16_)" d="M474.359436,356.8572693c-0.1435547,0.2243042-2.6022644,3.9302673-6.6402283,10.005188
			c-4.2566528,6.3817749-10.2683105,15.3757935-17.2256165,25.71521
			c-5.8763123,8.7328796-14.5611267,15.1929016-24.6186829,18.2976379
			c-24.6830139,7.6195679-60.2261047,17.662384-106.9862366,30.1332397
			c-80.1581726,21.3742676-117.369278-23.8684692-129.1431732-54.3331604
			c-11.2413025-29.0865784-32.9065399-84.8572388-43.6077118-132.8972778
			c-2.482193-11.1431274-0.9011688-22.8031006,4.4690704-32.8773651l2.7251282-5.1121674l15.9365082-29.9078522
			c0,0,14.5456848,32.4114227,27.3236084,64.0600891c9.3411407,23.1689606,17.7311707,45.9252167,18.772049,55.2753143
			c2.4586639,22.1280518,22.9536133,73.7602539,60.6592865,87.6956787
			c28.4990234,10.5346069,127.2767334-15.4698792,173.7761841-28.7862244
			C464.4978333,359.9171143,473.9825745,356.9739075,474.359436,356.8572693z"/>
		
			<linearGradient id="SVGID_17_" gradientUnits="userSpaceOnUse" x1="296.1798096" y1="272.4724121" x2="372.5531616" y2="60.1803513">
			<stop  offset="0.0153846" style="stop-color:#AA3335;stop-opacity:0"/>
			<stop  offset="1" style="stop-color:#D985B2"/>
		</linearGradient>
		<path fill="url(#SVGID_17_)" d="M565.0701904,258.4653931C520.5806885,152.0425415,458.7997742,51.0484772,458.7997742,51.0484772
			c-48.7876282,19.0591965-65.5048218-21.8678379-65.5048218-21.8678379
			c-50.2322998,3.6969814-163.5377197,24.3175182-241.7127686,46.7865448
			c-21.4999084,6.1736145-40.3527374,12.4908218-54.494606,18.6464691c-0.0268936,0.0089798-0.0448608,0.0179672-0.0718079,0.026947
			c-0.2871475,0.1255798-0.5653152,0.2422409-0.843483,0.3678818c3.7867432-2.6740189,7.8695679-4.9263153,12.1856995-6.6671295
			c47.1724548-18.6823425,95.0896912-35.2918587,143.7427063-49.8105927
			c48.661972-14.5187302,98.0508575-26.9646416,148.1934357-37.319767
			c31.5679321-6.3441033,69.5248413,12.966321,83.0744324,42.2460823
			c30.0604553,65.9355164,55.9034729,133.1273041,77.52005,201.5753784
			C562.2974243,249.5101166,563.6972046,253.9877625,565.0701904,258.4653931z"/>
		
			<linearGradient id="SVGID_18_" gradientUnits="userSpaceOnUse" x1="340.7753601" y1="141.6345367" x2="409.6963196" y2="-18.1367874">
			<stop  offset="0" style="stop-color:#D580A7;stop-opacity:0"/>
			<stop  offset="1" style="stop-color:#F6D75E"/>
		</linearGradient>
		<path fill="url(#SVGID_18_)" d="M560.8886108,245.0324554c-28.848999-77.6277008-69.1479797-168.8139954-76.8649597-184.2390289
			c-11.2704163-22.5228691-30.975708-61.9424057-90.1005554-51.6231537
			C325.3045654,21.149559,216.9434509,54.5121422,151.5821838,75.967186
			c-29.2348557,9.5924225-49.8733597,16.7979813-54.494606,18.6464691c-0.0268936,0.0089798-0.0448608,0.0179672-0.0718079,0.026947
			c-0.4396744,0.1704407-0.7268295,0.2960739-0.843483,0.3678818c3.7867432-2.6740189,7.8695679-4.9263153,12.1856995-6.6671295
			c47.1724548-18.6823425,95.0896912-35.2918587,143.7427063-49.8105927
			c48.661972-14.5187302,98.0508575-26.9646416,148.1934357-37.319767
			c31.5679321-6.3441033,69.5248413,12.966321,83.0744324,42.2460823
			C513.4290161,109.3925934,539.2720337,176.5843811,560.8886108,245.0324554z"/>
		
			<linearGradient id="SVGID_19_" gradientUnits="userSpaceOnUse" x1="511.3183899" y1="193.9333954" x2="508.9588013" y2="147.2138519">
			<stop  offset="0" style="stop-color:#A9352E;stop-opacity:0"/>
			<stop  offset="1" style="stop-color:#912970"/>
		</linearGradient>
		<path fill="url(#SVGID_19_)" d="M541.2947998,186.6137238c-34.3040771-8.0806122-58.9822083-34.9175262-63.0991516-47.6576843
			l38.6333313-17.2227859C525.4285889,143.2381592,533.5799561,164.8610687,541.2947998,186.6137238z"/>
		<g>
			
				<linearGradient id="SVGID_20_" gradientUnits="userSpaceOnUse" x1="-515.0802002" y1="778.0125732" x2="-504.8162842" y2="816.9073486" gradientTransform="matrix(-0.448736 -0.8936644 0.8936644 -0.448736 -494.6825562 65.0922241)">
				<stop  offset="0" style="stop-color:#F7D963"/>
				<stop  offset="0.5179487" style="stop-color:#CD3648"/>
				<stop  offset="1" style="stop-color:#A83A7A"/>
			</linearGradient>
			<path fill="url(#SVGID_20_)" d="M541.0491943,36.3503876c10.4586182,2.3395271,24.1083984,57.2287064,0.8214111,86.7286606
				c-16.5079346,20.9115677-41.1971741,29.4560471-55.6385498,24.9327316
				c-2.3780823-0.7437286-4.4750671-1.8420715-6.2146912-3.2987061c-2.6063538-2.1720886-4.4039307-5.1456451-5.1254883-8.9292297
				c-1.2461548-6.5273132-0.8384705-11.7114182,1.5893555-16.7706451
				c3.8769836-8.0976181,12.9336243-15.8673325,28.6920471-28.2970047
				c22.6413574-17.86203,25.1118774-48.4800606,32.6204224-53.7023888
				C538.7734985,36.3276176,539.8396606,36.0817375,541.0491943,36.3503876z"/>
			
				<linearGradient id="SVGID_21_" gradientUnits="userSpaceOnUse" x1="505.6758423" y1="147.3144989" x2="477.5851746" y2="107.8795547">
				<stop  offset="0.0153846" style="stop-color:#AA3335;stop-opacity:0"/>
				<stop  offset="1" style="stop-color:#D985B2"/>
			</linearGradient>
			<path fill="url(#SVGID_21_)" d="M478.2306519,128.5581665c3.5421448,8.1746979,22.8373718-8.1983032,18.6935425-13.4655609
				C492.7803345,109.8253403,476.0136108,123.4415207,478.2306519,128.5581665z"/>
			
				<linearGradient id="SVGID_22_" gradientUnits="userSpaceOnUse" x1="539.5371094" y1="123.1941147" x2="511.4464722" y2="83.7591782">
				<stop  offset="0.0153846" style="stop-color:#AA3335;stop-opacity:0"/>
				<stop  offset="1" style="stop-color:#D985B2"/>
			</linearGradient>
			<path fill="url(#SVGID_22_)" d="M501.5967712,112.3561859c4.1885681,5.9342499,25.8106995-15.2354584,27.8425598-39.9870834
				c1.5768433-19.2087784-9.423645,8.9561081-17.217041,18.1365891
				C504.4288635,99.6861725,498.193512,107.5345306,501.5967712,112.3561859z"/>
			
				<linearGradient id="SVGID_23_" gradientUnits="userSpaceOnUse" x1="-475.2901306" y1="767.723877" x2="-479.0715637" y2="855.7772217" gradientTransform="matrix(-0.448736 -0.8936644 0.8936644 -0.448736 -494.6825562 65.0922241)">
				<stop  offset="0.0153846" style="stop-color:#9A2529;stop-opacity:0"/>
				<stop  offset="1" style="stop-color:#802561"/>
			</linearGradient>
			<path fill="url(#SVGID_23_)" d="M541.0491943,36.3503876c10.4586182,2.3395271,24.1083984,57.2287064,0.8214111,86.7286606
				c-16.5079346,20.9115677-41.1971741,29.4560471-55.6385498,24.9327316
				c-2.3780823-0.7437286-4.4750671-1.8420715-6.2146912-3.2987061c12.425415-3.3669739,25.1175232-18.0391235,34.5213318-34.098259
				c12.2525024-20.9114304,9.6862183-2.824295,2.9237061,8.4148712
				c-6.7625732,11.2391586,29.9577026-26.5648422,20.3456421-81.9271164
				c-0.00354-0.0299187-0.0108032-0.0589371-0.0143433-0.0887642
				C538.7734985,36.3276176,539.8396606,36.0817375,541.0491943,36.3503876z"/>
		</g>
		
			<linearGradient id="SVGID_24_" gradientUnits="userSpaceOnUse" x1="401.1057434" y1="-30.7206116" x2="443.3687744" y2="-143.9854584" gradientTransform="matrix(0.9846538 0.1745188 -0.1745188 0.9846538 -6.8620811 51.7086639)">
			<stop  offset="0" style="stop-color:#D580A7;stop-opacity:0.9435897"/>
			<stop  offset="1" style="stop-color:#EBC5DA"/>
		</linearGradient>
		<path fill="url(#SVGID_24_)" d="M433.9403992,13.9336405c-27.3157349-8.7556553-48.1629944,18.9314842-6.0183716,29.4676437
			C463.8840332,52.3917809,462.8677368,23.2058773,433.9403992,13.9336405z"/>
	</g>
	<g>
		<g>
			<g enable-background="new    ">
				<g>
					<g>
						
							<linearGradient id="SVGID_25_" gradientUnits="userSpaceOnUse" x1="401.2565918" y1="108.3887177" x2="390.2646484" y2="139.3035889">
							<stop  offset="0" style="stop-color:#D9B5A9"/>
							<stop  offset="0.9282051" style="stop-color:#C097A4"/>
						</linearGradient>
						<path fill="url(#SVGID_25_)" d="M404.9512634,143.0154419l-13.8368225,23.3753357
							c-1.3190308,2.2433167-3.5264587,3.993103-6.3619995,4.8096466c-0.1166687,0.026947-0.2243347,0.0628204-0.3409729,0.0897675
							c-0.2871704,0.0718079-0.5743103,0.1345673-0.8704529,0.1884003c-4.7288818,0.852478-9.6641541-1.0947113-12.7061157-4.737854
							c-0.9242554-1.1036835-1.6690063-2.3599701-2.180481-3.7418365c-1.2293396-3.3201141-0.8704529-6.6761017,0.6909485-9.3232269
							l13.8367615-23.3753357c-1.5613403,2.6470642-1.9202881,6.0031128-0.690979,9.3231812
							c0.4307251,1.1575775,1.0229797,2.2343903,1.7498169,3.1944733c2.8265991,3.777771,7.6272583,5.9403534,12.3382263,5.3929443
							c0.5653076-0.053833,1.1216736-0.1525269,1.6690063-0.2960815c0.1166687-0.026947,0.2243347-0.0628204,0.3410034-0.0897675
							C401.4247742,147.0085449,403.6321716,145.2587585,404.9512634,143.0154419z"/>
					</g>
					
						<linearGradient id="SVGID_26_" gradientUnits="userSpaceOnUse" x1="363.8413086" y1="139.9163513" x2="384.6388245" y2="158.4030457">
						<stop  offset="0" style="stop-color:#BE9587;stop-opacity:0"/>
						<stop  offset="0.9282051" style="stop-color:#A47985"/>
					</linearGradient>
					<path fill="url(#SVGID_26_)" d="M396.5791931,148.2109375l-13.0381775,23.2676544
						c-4.7288818,0.852478-9.6641541-1.0947113-12.7061157-4.737854l13.4060669-23.9227448
						C387.0675659,146.5957642,391.8682251,148.7583466,396.5791931,148.2109375z"/>
				</g>
				<g>
					
						<linearGradient id="SVGID_27_" gradientUnits="userSpaceOnUse" x1="325.5315857" y1="281.6117249" x2="383.752594" y2="114.2263107">
						<stop  offset="0" style="stop-color:#D9B5A9"/>
						<stop  offset="0.9282051" style="stop-color:#C097A4"/>
					</linearGradient>
					<path fill="url(#SVGID_27_)" d="M468.5537415,303.3945313l-13.836792,23.3753357
						c9.0899048-15.353241,12.3023682-34.2419434,7.1427307-51.838501
						c-10.2295532-34.1073608-21.6794434-67.8647766-34.3496704-101.2722168
						c-2.3060913-5.9762268-5.5454712-11.548645-9.502655-16.6095123
						c-17.165863-21.9576111-47.8544312-34.2420044-74.7293701-27.7363892
						c-17.246582,4.2802582-34.4034424,8.8655853-51.4436646,13.7560272
						c-17.0491943,4.8904419-33.9907227,10.0769501-50.8425446,15.5775757
						c-14.8327637,4.9352875-26.9377441,15.4968414-34.726532,28.6605988l13.8368073-23.3753357
						c7.7887878-13.1637726,19.8937073-23.7253113,34.7354736-28.6695862
						c16.8428345-5.4916382,33.7843628-10.6871338,50.8335571-15.5685959
						c17.0402222-4.8904343,34.1970825-9.4757614,51.4437256-13.7560272
						c27.5030212-6.6581421,58.9902039,6.3620682,75.895813,29.2797623
						c3.4277954,4.6391602,6.2633667,9.6911163,8.3361816,15.0660858
						c12.6702576,33.4075012,24.1201477,67.1649017,34.3496399,101.2722931
						C480.8560486,269.1525879,477.6436157,288.0412903,468.5537415,303.3945313z"/>
				</g>
				
					<linearGradient id="SVGID_28_" gradientUnits="userSpaceOnUse" x1="332.0534668" y1="211.1316528" x2="306.6777954" y2="109.2060165">
					<stop  offset="0" style="stop-color:#BE9587;stop-opacity:0"/>
					<stop  offset="0.9282051" style="stop-color:#A47985"/>
				</linearGradient>
				<path opacity="0.7" fill="url(#SVGID_28_)" d="M433.0106201,135.2176666
					c-5.455719,7.9503021-10.8038025,15.73909-15.0032654,21.8319702
					c-12.1228943-15.5058289-30.9847107-26.1839752-50.4835815-28.822113
					c-8.1207886-1.1127396-16.3492737-0.8255844-24.2457886,1.0857239
					c-17.246582,4.2802582-34.4034424,8.8655853-51.4436646,13.7560272
					c-17.0491943,4.8904419-33.9907227,10.0769501-50.8425446,15.5775757
					c-14.8327637,4.9352875-26.9377441,15.4968414-34.726532,28.6605988l13.8368073-23.3753357
					c7.7887878-13.1637726,19.8937073-23.7253113,34.7354736-28.6695862
					c16.8428345-5.4916382,33.7843628-10.6871338,50.8335571-15.5685959
					c17.0402222-4.8904343,34.1970825-9.4757614,51.4437256-13.7560272
					c7.905426-1.9113083,16.1339111-2.1984558,24.2546997-1.0947113
					C401.5054932,107.5800323,420.9595337,118.886322,433.0106201,135.2176666z"/>
				
					<linearGradient id="SVGID_29_" gradientUnits="userSpaceOnUse" x1="278.9161377" y1="223.5602417" x2="295.0326233" y2="139.7545166">
					<stop  offset="0" style="stop-color:#BE9587;stop-opacity:0"/>
					<stop  offset="0.9282051" style="stop-color:#A47985"/>
				</linearGradient>
				<path fill="url(#SVGID_29_)" d="M381.3703613,104.8407364c-3.8102417,5.8982239-9.024231,14.8753052-13.8490295,23.3923721
					c-6.1931152-0.8493805-12.4452209-0.8847275-18.5675964,0c-1.9110107,0.2713013-3.7984009,0.6251831-5.6740723,1.0852509
					c-17.2463989,4.2703094-34.4102173,8.8591461-51.4443054,13.7546387
					c-12.987915,3.7159119-25.9168396,7.6205292-38.7867279,11.6903229
					c-4.0226288,1.2857666-8.0451813,2.5716095-12.056015,3.8809967
					c-14.8281403,4.9427185-26.9430389,15.5005493-34.7287445,28.6653595l13.8372803-23.3805695
					c7.7856293-13.1648102,19.8887939-23.722641,34.7404938-28.6653595
					c2.9373779-0.9555054,5.8746643-1.9110107,8.8237915-2.8547211
					c13.9316101-4.4472809,27.9339905-8.6821671,42.0071411-12.7166061
					c17.0340576-4.8836746,34.197876-9.4725113,51.4442749-13.7546234c1.3211975-0.3185272,2.6542053-0.5898285,3.9990234-0.8139572
					C367.769104,103.967804,374.6110229,103.9323807,381.3703613,104.8407364z"/>
				
					<linearGradient id="SVGID_30_" gradientUnits="userSpaceOnUse" x1="278.0229187" y1="219.3147278" x2="310.5775452" y2="119.1938629">
					<stop  offset="0" style="stop-color:#9A776C;stop-opacity:0"/>
					<stop  offset="0.9282051" style="stop-color:#88606D"/>
				</linearGradient>
				<path fill="url(#SVGID_30_)" d="M361.1158752,105.1238403c-3.7276306,6.9363174-8.0923462,15.276413-12.1621399,23.1092682
					c-1.9110107,0.2713013-3.7984009,0.6251831-5.6740723,1.0852509
					c-17.2463989,4.2703094-34.4102173,8.8591461-51.4443054,13.7546387
					c-12.987915,3.7159119-25.9168396,7.6205292-38.7867279,11.6903229l10.616806-22.3542938
					c13.9316101-4.4472809,27.9339905-8.6821671,42.0071411-12.7166061
					c17.0340576-4.8836746,34.197876-9.4725113,51.4442749-13.7546234
					C358.4380493,105.6192703,359.7710571,105.3479691,361.1158752,105.1238403z"/>
				<g>
					<g>
						
							<linearGradient id="SVGID_31_" gradientUnits="userSpaceOnUse" x1="328.157196" y1="291.7453613" x2="346.8300476" y2="208.4746246">
							<stop  offset="0" style="stop-color:#D9B5A9"/>
							<stop  offset="0.9282051" style="stop-color:#C097A4"/>
						</linearGradient>
						<path fill="url(#SVGID_31_)" d="M386.8701172,258.9230652l-13.8367615,23.3753357
							c6.6133118-11.1806641,8.4976501-25.1251526,3.9482117-38.5939636
							c-0.744751-2.1984558-1.6420593-4.3161469-2.6740112-6.344101
							c-10.7858887-21.2486877-36.2160645-32.9767456-59.4299011-26.3455505
							c-11.8267517,3.4009094-21.1769409,11.0371552-26.9377441,20.7641449l13.836731-23.3753357
							c5.7608948-9.7270355,15.1110229-17.3632355,26.9377747-20.7641449
							c24.3803406-6.9721832,51.2104187,6.3261414,60.9463806,29.6297302
							c0.4127808,1.0050049,0.8076172,2.0189819,1.1575928,3.0598602
							C395.3678284,233.7979126,393.4833984,247.7424011,386.8701172,258.9230652z"/>
					</g>
					
						<linearGradient id="SVGID_32_" gradientUnits="userSpaceOnUse" x1="341.5681763" y1="281.7261658" x2="336.8000793" y2="183.185379">
						<stop  offset="0" style="stop-color:#BE9587;stop-opacity:0"/>
						<stop  offset="0.9282051" style="stop-color:#A47985"/>
					</linearGradient>
					<path opacity="0.7" fill="url(#SVGID_32_)" d="M389.6607971,217.2691803
						c-5.1865234,6.8376312-10.5614929,13.8905945-15.353241,20.091156
						c-1.6421204-3.2304077-3.6251831-6.2454224-5.8864746-9.009201
						c-9.9423828-12.149765-25.3045959-19.4270782-41.0167847-19.1758575
						c-4.1815186,0.0628204-8.3899841,0.6550903-12.5266418,1.8395081
						c-11.8267517,3.4009094-21.1769409,11.0371552-26.9377441,20.7641449l13.836731-23.3753357
						c5.7608948-9.7270355,15.1110229-17.3632355,26.9377747-20.7641449
						c4.818634-1.3818665,9.7270203-1.9651489,14.5905151-1.8395081
						c15.7750244,0.4038086,30.9667358,8.3272095,40.4155579,21.0423126
						C386.089447,210.0277557,388.0994568,213.5183716,389.6607971,217.2691803z"/>
					
						<linearGradient id="SVGID_33_" gradientUnits="userSpaceOnUse" x1="354.5482788" y1="266.0015259" x2="355.6838074" y2="200.8977203">
						<stop  offset="0" style="stop-color:#BE9587;stop-opacity:0"/>
						<stop  offset="0.9282051" style="stop-color:#A47985"/>
					</linearGradient>
					<path fill="url(#SVGID_33_)" d="M383.7178345,206.8445892c-5.0370178,7.2312317-10.5459595,14.9225464-15.2999573,21.5049744
						c-1.4509277-1.7694702-3.0080872-3.4328003-4.6714172-4.9781342
						c-6.9480591-6.5116577-15.6420288-11.0650787-24.9259033-13.0586853
						c-3.7394409-0.8021393-7.5614929-1.191452-11.4189453-1.1324005l15.9016724-23.3805695
						c3.5389099,0.0943146,7.0424194,0.5543976,10.4634399,1.3683472
						c9.2719727,2.2177429,17.8951721,6.9834747,24.713562,13.6721191
						C380.3794861,202.7040253,382.1253662,204.7094421,383.7178345,206.8445892z"/>
					
						<linearGradient id="SVGID_34_" gradientUnits="userSpaceOnUse" x1="390.9272766" y1="229.3682404" x2="355.8375244" y2="203.181839">
						<stop  offset="0" style="stop-color:#9A776C;stop-opacity:0"/>
						<stop  offset="0.9282051" style="stop-color:#88606D"/>
					</linearGradient>
					<path fill="url(#SVGID_34_)" d="M378.4802856,200.8402405l-14.7338257,22.531189
						c-6.9480591-6.5116577-15.6420288-11.0650787-24.9259033-13.0586853
						c4.5653076-7.054245,10.3809509-16.0431366,14.946167-23.1446228
						C363.0386963,189.3858643,371.6618958,194.1515961,378.4802856,200.8402405z"/>
				</g>
				<g>
					<g>
						
							<linearGradient id="SVGID_35_" gradientUnits="userSpaceOnUse" x1="358.7679749" y1="208.4026184" x2="307.9285278" y2="296.3411255">
							<stop  offset="0" style="stop-color:#D9B5A9"/>
							<stop  offset="0.9282051" style="stop-color:#C097A4"/>
						</linearGradient>
						<path fill="url(#SVGID_35_)" d="M412.1029358,274.0160828l-13.8367615,23.3753357
							c-9.2335205,15.5955505-24.111145,27.8799438-42.7934875,33.2998352
							c-28.1581116,7.9771729-58.8377075-1.3101196-79.4133911-21.2307739
							c-8.8565979-8.569458-15.8378296-19.1130371-19.9475403-31.0923157
							c-7.1696777-21.3474426-4.0290375-43.7177734,6.6043091-61.6822662l13.8367615-23.3753357
							c-10.6333008,17.9644928-13.7739258,40.3348236-6.6043091,61.6821899
							c4.0828247,11.907547,11.0102234,22.3972931,19.7860413,30.9398651
							c20.5756836,20.0283203,51.3450317,29.3874207,79.5748901,21.3832397
							C387.9917908,301.8960266,402.8784485,289.6116333,412.1029358,274.0160828z"/>
					</g>
					<g>
						
							<linearGradient id="SVGID_36_" gradientUnits="userSpaceOnUse" x1="324.0015869" y1="224.8064728" x2="356.8070374" y2="334.1580505">
							<stop  offset="0" style="stop-color:#BE9587;stop-opacity:0"/>
							<stop  offset="0.9282051" style="stop-color:#A47985"/>
						</linearGradient>
						<path opacity="0.7" fill="url(#SVGID_36_)" d="M412.1029358,274.0160828l-13.8367615,23.3753357
							c-9.2335205,15.5955505-24.111145,27.8799438-42.7934875,33.2998352
							c-1.1934509,0.3409119-2.3869324,0.6460266-3.589325,0.9152222
							c-22.3344421,5.1506348-45.9072266-0.2512207-64.535675-12.9573975
							c-4.0110779-2.7278442-7.79776-5.8056641-11.2883911-9.1885986
							c4.3251343-7.3939514,9.0629883-15.5506897,13.6752625-23.5278625
							c3.5354614,3.4367065,7.3670654,6.5684204,11.440918,9.3411255
							c19.1040344,13.0292053,43.4126282,18.3862,66.2585754,12.5446167
							c0.6280823-0.1525269,1.2472534-0.3230286,1.8753967-0.5025024
							C387.9917908,301.8960266,402.8784485,289.6116333,412.1029358,274.0160828z"/>
						
							<linearGradient id="SVGID_37_" gradientUnits="userSpaceOnUse" x1="308.5734863" y1="243.7892151" x2="324.2595825" y2="301.6655273">
							<stop  offset="0" style="stop-color:#BE9587;stop-opacity:0"/>
							<stop  offset="0.9282051" style="stop-color:#A47985"/>
						</linearGradient>
						<path fill="url(#SVGID_37_)" d="M367.4387512,307.8222351l-15.5595093,23.7816162
							c-2.960907,0.6842041-5.9571838,1.1796265-8.9534607,1.4981689
							c-15.5005493,1.663269-31.2134399-1.4745483-45.0978699-8.3400879
							c-3.6332703-1.7812805-7.1368408-3.8338623-10.4751892-6.1105652
							c4.4353943-7.561554,9.3427734-15.8190613,13.8254089-23.3805542
							c3.2085876,2.1941223,6.5588074,4.164093,10.0269775,5.8982239c13.8608398,6.9481201,29.5737,10.1803284,45.0978088,8.6113892
							C360.0306396,309.4147339,363.7582703,308.7659302,367.4387512,307.8222351z"/>
						
							<linearGradient id="SVGID_38_" gradientUnits="userSpaceOnUse" x1="377.2870483" y1="320.2246704" x2="306.5837708" y2="316.5585632">
							<stop  offset="0" style="stop-color:#9A776C;stop-opacity:0"/>
							<stop  offset="0.9282051" style="stop-color:#88606D"/>
						</linearGradient>
						<path fill="url(#SVGID_38_)" d="M356.3029175,309.780426l-13.3771362,23.3215942
							c-15.5005493,1.663269-31.2134399-1.4745483-45.0978699-8.3400879
							c3.680542-6.4998779,8.5760193-15.1230774,13.3771973-23.5928955
							C325.0659485,308.117157,340.7788086,311.3493652,356.3029175,309.780426z"/>
					</g>
				</g>
				<g>
					
						<linearGradient id="SVGID_39_" gradientUnits="userSpaceOnUse" x1="367.8349304" y1="194.0071869" x2="96.8290329" y2="651.225708">
						<stop  offset="0" style="stop-color:#D9B5A9"/>
						<stop  offset="0.9282051" style="stop-color:#C097A4"/>
					</linearGradient>
					<path fill="url(#SVGID_39_)" d="M509.5741577,243.4490051
						c-10.1920776-35.1888275-21.9767151-69.9293823-35.3539124-104.2098541
						c-18.650177-46.4426193-78.2694092-77.8211441-126.8354492-66.7914886
						c-17.8008118,4.2584991-35.4719238,8.8945618-53.0250549,13.9316025
						c-17.5413208,5.0252991-34.9410706,10.4398956-52.2228241,16.2555389
						c-21.021286,7.3255463-38.5862122,22.8615265-50.3237,42.1015244l-0.011734,0.0118103
						c-7.6559601,12.539566-12.846344,26.6363373-14.9225311,41.0751801
						c-1.8284302,12.7047882-1.2504272,25.6808929,2.1941223,38.0553436
						c6.1341705,21.1392975,12.846344,42.1133423,20.1247406,62.9341125
						c4.812973,13.8254089,9.8972321,27.5918274,15.229248,41.2757568
						c18.6737366,46.4425964,78.2812195,77.8211365,126.8353882,66.7796631
						c17.8126526-4.2466736,35.4837341-8.8826599,53.0250244-13.9197693
						c9.7320862-2.7839661,19.4169922-5.6977234,29.054657-8.7294006
						c7.7503052-2.4300842,15.4769592-4.9427185,23.1800537-7.5379639
						c19.9949341-6.9598694,36.8521118-21.351532,48.565979-39.3056946
						c8.8591309-13.5541992,14.769165-29.1490479,16.8570862-45.1096802c0.0118103,0,0.0118103-0.0117493,0-0.0235596
						C513.5731812,267.9266357,512.9125977,255.4106293,509.5741577,243.4490051z M477.6529846,277.0334778
						c-3.102478,24.4894104-19.9124146,47.0678406-43.8355713,55.0304565
						c-16.8453674,5.4971008-33.7850647,10.6757507-50.8309326,15.5713196
						c-17.0458069,4.883667-34.1979065,9.4725037-51.4443054,13.7546387
						c-33.0772095,7.9980164-71.9111023-12.4452515-84.2384186-44.3428345
						c-12.4452362-32.8531494-23.734436-66.0483704-33.8321991-99.5738525
						c-0.1769714-0.5662079-0.3421478-1.1324921-0.507309-1.6987c-3.881012-13.2002258-3.0434265-27.1318207,1.4628143-39.7422333
						c6.6296082-18.6147614,21.2453461-34.3865967,40.4145813-40.7685242
						c16.8335571-5.4971161,33.7850342-10.6875763,50.8309326-15.5713272
						c17.0340576-4.8836746,34.197876-9.4725113,51.4442749-13.7546234
						c33.077301-8.0097656,71.9111938,12.4452362,84.2266846,44.3428116
						c12.6693726,33.407547,24.1237488,67.1689758,34.3512573,101.2725525
						c1.3330078,4.5297852,2.0997314,9.1304321,2.3710938,13.7428284
						C478.2782288,269.2124023,478.1366577,273.1406555,477.6529846,277.0334778z"/>
				</g>
				
					<linearGradient id="SVGID_40_" gradientUnits="userSpaceOnUse" x1="283.8383789" y1="389.5816345" x2="321.1200867" y2="307.9475403">
					<stop  offset="0" style="stop-color:#D4E7D8"/>
					<stop  offset="1" style="stop-color:#E0B0A9;stop-opacity:0"/>
				</linearGradient>
				<path fill="url(#SVGID_40_)" d="M423.3421326,372.2190247c-9.6376648,3.0316772-19.3225708,5.9454346-29.054657,8.7294006
					c-17.5412903,5.0371094-35.2123718,9.6730957-53.0250244,13.9197693
					c-48.5541687,11.0414734-108.1616516-20.3370667-126.8353882-66.7796631
					c-5.332016-13.6839294-10.416275-27.4503479-15.229248-41.2757568
					c8.493454,20.4786072,30.9117126,72.1032715,72.5522461,90.4251099
					C310.504425,394.2897949,330.269165,398.1652527,423.3421326,372.2190247z"/>
				
					<linearGradient id="SVGID_41_" gradientUnits="userSpaceOnUse" x1="371.8429565" y1="160.8119659" x2="319.2463684" y2="300.0817566">
					<stop  offset="0.0717949" style="stop-color:#EDE0DD"/>
					<stop  offset="1" style="stop-color:#D9B5A9"/>
				</linearGradient>
				<path opacity="0.6" fill="url(#SVGID_41_)" d="M511.9484253,280.2435303c0.0090027,0.0089722,0.0090027,0.0179749,0,0.026947
					c-2.0907593,15.9544373-8.0041199,31.5499573-16.8607788,45.108551
					c-1.5613403-16.8338318-5.8864746-39.1503296-17.0222473-60.0849304
					c-0.2691956-4.6122742-1.0408936-9.2155457-2.3689575-13.7380524
					c-10.2294922-34.1073914-21.6793823-67.8647919-34.3496399-101.2722931
					c-12.3203125-31.8999329-51.1565552-52.3499832-84.2319946-44.3458481
					c-17.2466431,4.2802658-34.4035034,8.865593-51.4437256,13.7560272
					c-17.0491943,4.8814621-33.9907227,10.0769577-50.8335571,15.5685959
					c-19.1668854,6.3799744-33.7753296,22.1549835-40.4155579,40.7745056
					c-13.8457336,1.8754272-26.5608368,5.0609283-37.5441589,9.7808685
					c2.0728302-14.4290161,7.2683716-28.5349579,14.9225464-41.0706329l0.0089722-0.0089874
					c11.7460327-19.2476578,29.3067169-34.7803726,50.3310547-42.1025238
					c17.2735291-5.8146591,34.6816406-11.2345428,52.2243652-16.259552
					c17.5427551-5.033989,35.2200317-9.6732025,53.0230103-13.9265213
					c48.5632935-11.0371017,108.1816711,20.3423691,126.8370667,66.7879868
					c13.3701782,34.28685,25.1520691,69.0223694,35.3546753,104.2154846
					C512.9175415,255.4145355,513.5725708,267.932251,511.9484253,280.2435303z"/>
				
					<linearGradient id="SVGID_42_" gradientUnits="userSpaceOnUse" x1="315.6762085" y1="407.1411743" x2="341.7624207" y2="269.4060059">
					<stop  offset="0.0717949" style="stop-color:#EDE0DD"/>
					<stop  offset="1" style="stop-color:#D9B5A9"/>
				</linearGradient>
				<path opacity="0.6" fill="url(#SVGID_42_)" d="M477.6525879,277.0310974
					c-0.2243042,20.6026306-14.2943726,44.2202454-29.2348328,54.3420715
					c-16.5377808,11.2076416-92.3298645,32.1559143-112.6004944,36.956604
					c-20.2705688,4.8006592-39.9619751,4.3188782-60.7709656-6.8797607
					c-20.8090057-11.2075806-33.6238098-35.4069519-42.1573334-66.3467712
					c-6.1557007-22.3164978-15.3622284-54.0549164-19.4181671-77.6276855
					c10.1039124,33.5241394,21.3833008,66.7162476,33.8381958,99.5673218
					c12.320282,31.8999634,51.1565247,52.3410645,84.2320251,44.3458557
					c17.246582-4.2802124,34.4034424-8.8655701,51.4436646-13.756012
					c17.0491943-4.8903809,33.9907227-10.0769653,50.8335571-15.5686035
					C457.7409363,324.1048584,474.5478821,301.5281372,477.6525879,277.0310974z"/>
				
					<linearGradient id="SVGID_43_" gradientUnits="userSpaceOnUse" x1="403.1626892" y1="73.3488159" x2="332.4120789" y2="265.3078613">
					<stop  offset="0" style="stop-color:#FFFFFF"/>
					<stop  offset="1" style="stop-color:#EDE0DD;stop-opacity:0"/>
				</linearGradient>
				<path fill="url(#SVGID_43_)" d="M511.9484253,280.2435303c-1.6510925-31.1820831-19.8039856-59.7080688-32.7883301-95.269104
					c-16.8338013-46.1405029-48.2258301-112.2716827-131.6433105-97.4305344
					c-70.6486816,12.569397-125.8623657,30.9027481-155.7074585,57.1943893
					c11.7460327-19.2476578,29.3067169-34.7803726,50.3310547-42.1025238
					c17.2735291-5.8146591,34.6816406-11.2345428,52.2243652-16.259552
					c17.5427551-5.033989,35.2200317-9.6732025,53.0230103-13.9265213
					c48.5632935-11.0371017,108.1816711,20.3423691,126.8370667,66.7879868
					c13.3701782,34.28685,25.1520691,69.0223694,35.3546753,104.2154846
					C512.9175415,255.4145355,513.5725708,267.932251,511.9484253,280.2435303z"/>
				
					<linearGradient id="SVGID_44_" gradientUnits="userSpaceOnUse" x1="410.6743469" y1="25.0267124" x2="389.3896484" y2="74.2968292" gradientTransform="matrix(0.9968594 0.0791911 -0.0791911 0.9968594 8.9621305 28.2347088)">
					<stop  offset="0" style="stop-color:#FFFFFF"/>
					<stop  offset="1" style="stop-color:#EDE0DD;stop-opacity:0"/>
				</linearGradient>
				<path fill="url(#SVGID_44_)" d="M402.3966675,79.6952515c-24.5552368-6.9053802-34.5758057,11.1264191-13.1204834,15.4733429
					c21.4553223,4.3469315,34.1416931,10.9700623,42.2741089,20.8648682
					c8.1323853,9.8948059,15.3944397-9.5067978-1.5092773-22.5811768
					C413.8590393,80.936142,402.3966675,79.6952515,402.3966675,79.6952515z"/>
				<g>
					<g>
						
							<linearGradient id="SVGID_45_" gradientUnits="userSpaceOnUse" x1="362.0923462" y1="190.6078339" x2="91.0658722" y2="647.861084">
							<stop  offset="0" style="stop-color:#D9B5A9"/>
							<stop  offset="0.9282051" style="stop-color:#C097A4"/>
						</linearGradient>
						<path fill="url(#SVGID_45_)" d="M403.8296204,144.5588074c-1.3101196,1.4985809-3.0957947,2.6471252-5.2404175,3.2662811
							c-0.1166687,0.026947-0.2243347,0.0628204-0.3410034,0.0897675
							c-6.4069214,1.6420746-13.441925-2.0638885-15.7570496-8.2913361c-0.7626953-2.0728302-0.9152832-4.163559-0.5293884-6.083847
							c0.717865-3.7059631,3.4098511-6.7748032,7.4029541-7.9234085c0.1435547-0.0448532,0.2870789-0.0807266,0.4396667-0.1166534
							c6.36203-1.5613403,13.4598999,2.1715698,15.8108826,8.3182297
							C407.1227722,137.7571106,406.2972412,141.7591553,403.8296204,144.5588074z"/>
					</g>
					
						<linearGradient id="SVGID_46_" gradientUnits="userSpaceOnUse" x1="400.7123108" y1="118.2304077" x2="389.8187866" y2="148.4599152">
						<stop  offset="0.0717949" style="stop-color:#EDE0DD"/>
						<stop  offset="1" style="stop-color:#D9B5A9"/>
					</linearGradient>
					<path opacity="0.6" fill="url(#SVGID_46_)" d="M403.8296204,144.5588074
						c0.3768616-14.7609711-13.1278992-18.1439056-21.8678589-11.0191345
						c0.717865-3.7059631,3.4098511-6.7748032,7.4029541-7.9234085c0.1435547-0.0448532,0.2870789-0.0807266,0.4396667-0.1166534
						c6.36203-1.5613403,13.4598999,2.1715698,15.8108826,8.3182297
						C407.1227722,137.7571106,406.2972412,141.7591553,403.8296204,144.5588074z"/>
					
						<linearGradient id="SVGID_47_" gradientUnits="userSpaceOnUse" x1="401.8376465" y1="121.4429169" x2="387.2536621" y2="151.0049896">
						<stop  offset="0" style="stop-color:#FFFFFF"/>
						<stop  offset="1" style="stop-color:#EDE0DD;stop-opacity:0"/>
					</linearGradient>
					<path fill="url(#SVGID_47_)" d="M394.8737488,126.5953979c-4.9401855-0.3187256-6.1850586,4.9480438-0.7731323,5.4119263
						c5.4119263,0.4638672,4.4841614,4.4841614,7.112793,4.4841614
						C403.8420715,136.4914856,404.4605713,127.2138977,394.8737488,126.5953979z"/>
				</g>
				<g>
					
						<linearGradient id="SVGID_48_" gradientUnits="userSpaceOnUse" x1="367.8341675" y1="194.002533" x2="96.8100815" y2="651.25177">
						<stop  offset="0" style="stop-color:#D9B5A9"/>
						<stop  offset="0.9282051" style="stop-color:#C097A4"/>
					</linearGradient>
					<path fill="url(#SVGID_48_)" d="M418.7061462,212.3299713c-13.6248779-39.8130188-59.0648193-63.7362518-99.3614502-52.305481
						c-24.0765991,6.9717407-41.8302307,25.3505554-49.3327637,47.5397339
						c-3.3855896,10.0505371-4.6832275,20.8561249-3.4917908,31.7560272c0.0236206,0.3067169,0.0589905,0.6251678,0.0943909,0.9319
						c0.5898438,4.9190979,1.6868896,9.8618011,3.3384399,14.7455597
						c13.6366882,39.8130188,59.0765381,63.7362366,99.3614502,52.3172913
						c11.6902466-3.3856506,21.8941956-9.4725952,30.1517334-17.3762207
						c2.1705017-2.0762024,4.2113342-4.2821045,6.1105347-6.6059875c0.0118103,0,0.0118103-0.0118103,0.0118103-0.0118103
						c1.0498962-1.2858276,2.0525818-2.6070251,3.0198975-3.9517822
						C421.997345,260.6364441,426.6097717,235.8639069,418.7061462,212.3299713z M297.131958,219.1718903
						c4.2348938-14.6983948,15.6774597-26.9430389,31.5791016-31.5318756
						c25.433136-7.2666626,53.5322266,7.514328,62.1082764,32.687912c1.6987,5.0134888,2.4890137,10.0977631,2.4890137,15.0758972
						c0,6.5116577-1.3683472,12.8345337-3.9281616,18.6147614c-5.2965698,12.0323792-15.6893311,21.7172852-29.4439392,25.6690674
						c-25.4213562,7.2548523-53.5323181-7.526123-62.0847168-32.699707
						c-0.3775024-1.1088715-0.719574-2.2295532-1.0026855-3.3384247
						C294.690094,235.309433,294.9260254,226.9103699,297.131958,219.1718903z"/>
				</g>
				
					<linearGradient id="SVGID_49_" gradientUnits="userSpaceOnUse" x1="325.8170776" y1="303.4796753" x2="334.8887634" y2="266.1043396">
					<stop  offset="0" style="stop-color:#D4E7D8"/>
					<stop  offset="1" style="stop-color:#E0B0A9;stop-opacity:0"/>
				</linearGradient>
				<path fill="url(#SVGID_49_)" d="M405.5766907,283.3327942c-1.8992004,2.3238831-3.940033,4.5297852-6.1105347,6.6059875
					c-8.2575378,7.9036255-18.4614868,13.9905701-30.1517334,17.3762207
					c-40.2849121,11.4189453-85.724762-12.5042725-99.3614502-52.3172913
					c-1.6515503-4.8837585-2.7485962-9.8264618-3.3384399-14.7455597c-0.0354004-0.3067322-0.0707703-0.6251831-0.0943909-0.9319
					c6.0161743,16.8570862,23.6047058,53.5204773,64.8686829,62.934021
					C370.9187317,311.278595,395.3137817,293.5249329,405.5766907,283.3327942z"/>
				
					<linearGradient id="SVGID_50_" gradientUnits="userSpaceOnUse" x1="351.7003784" y1="194.1319733" x2="335.402832" y2="281.54599">
					<stop  offset="0.0717949" style="stop-color:#EDE0DD"/>
					<stop  offset="1" style="stop-color:#D9B5A9"/>
				</linearGradient>
				<path opacity="0.6" fill="url(#SVGID_50_)" d="M408.6123047,279.3731384
					c-1.0139771-14.4379883-5.2224426-30.9128876-15.2993774-43.9689789c0-4.9801941-0.798645-10.0590363-2.4945374-15.075119
					c-8.5784607-25.1789703-36.6737366-39.957901-62.1039734-32.6895905
					c-15.9095764,4.5853882-27.3504944,16.833847-31.5769348,31.5320587
					c-14.4559021,5.7339325-24.218811,13.9265289-30.5270386,21.078186
					c-1.3549194-11.2075958-0.0807495-22.3523712,3.4009094-32.680603
					c7.5016174-22.1908569,25.2596741-40.5681458,49.3349609-47.5493164
					c40.289978-11.4230042,85.7305298,12.4997559,99.3609314,52.3141174
					C426.6126709,235.8617554,421.9914856,260.6369629,408.6123047,279.3731384z"/>
				
					<linearGradient id="SVGID_51_" gradientUnits="userSpaceOnUse" x1="330.2746887" y1="301.2136536" x2="348.270813" y2="227.8083496">
					<stop  offset="0.0717949" style="stop-color:#EDE0DD"/>
					<stop  offset="1" style="stop-color:#D9B5A9"/>
				</linearGradient>
				<path opacity="0.6" fill="url(#SVGID_51_)" d="M389.3826294,254.0147095
					c-6.837616,19.6155396-28.8834229,39.5500488-62.5061951,28.997467
					c-21.1231079-6.6312561-28.2996216-27.8431702-30.0260925-39.3615723
					c0.2871399,1.1126709,0.6191711,2.2253418,0.9960327,3.338028c8.5605164,25.1699982,36.6647644,39.957962,62.0949707,32.6985626
					C373.688385,275.730011,384.0884399,266.0567932,389.3826294,254.0147095z"/>
				
					<linearGradient id="SVGID_52_" gradientUnits="userSpaceOnUse" x1="371.6065369" y1="158.1264648" x2="354.1723022" y2="206.4058533">
					<stop  offset="0" style="stop-color:#FFFFFF"/>
					<stop  offset="1" style="stop-color:#EDE0DD"/>
				</linearGradient>
				<path fill="url(#SVGID_52_)" d="M399.4685669,289.9346313c11.440918-13.4688721,17.8298645-33.8112183,17.5158081-58.4787292
					c-0.4127808-31.747406-43.565155-80.1940308-97.7098694-62.2833862
					c-27.6734924,9.1437531-41.9230347,24.6136475-49.2631531,38.3965759
					c7.5016174-22.1908569,25.2596741-40.5681458,49.3349609-47.5493164
					c40.289978-11.4230042,85.7305298,12.4997559,99.3609314,52.3141174
					C428.2099609,240.61763,419.6135559,270.6869812,399.4685669,289.9346313z"/>
				
					<linearGradient id="SVGID_53_" gradientUnits="userSpaceOnUse" x1="365.9967651" y1="130.7180786" x2="353.3836365" y2="175.2582703" gradientTransform="matrix(0.9991356 0.0415712 -0.0415712 0.9991356 7.7034855 16.3184109)">
					<stop  offset="0" style="stop-color:#FFFFFF"/>
					<stop  offset="1" style="stop-color:#EDE0DD;stop-opacity:0"/>
				</linearGradient>
				<path fill="url(#SVGID_53_)" d="M358.9022827,161.2516632c-23.4828186-5.4223938-24.5031433,10.0718384-8.7252197,11.6790009
					s23.1202087,7.9336853,31.7147217,14.6291962C390.4862671,194.2553711,394.0568848,169.3691559,358.9022827,161.2516632z"/>
				<g>
					<g>
						
							<linearGradient id="SVGID_54_" gradientUnits="userSpaceOnUse" x1="348.7864685" y1="104.4229507" x2="324.4771423" y2="316.1168518">
							<stop  offset="0" style="stop-color:#D9B5A9"/>
							<stop  offset="0.9282051" style="stop-color:#C097A4"/>
						</linearGradient>
						<path fill="url(#SVGID_54_)" d="M497.64505,321.2782593l-13.8367615,23.3753662
							c-11.7550049,19.8398743-29.6297302,35.9199524-51.120697,43.4126587
							c-17.2825012,5.8056641-34.6906128,11.2344971-52.2333679,16.259552
							c-17.5427246,5.0339966-35.2200623,9.6731567-53.0229797,13.9174805
							c-36.1263733,8.2105713-78.354538-7.0439758-105.3012695-34.5021362
							c-9.2873077-9.4578552-16.7620544-20.3782959-21.5447693-32.2768555
							c-13.3522186-34.2958069-25.1341095-69.031311-35.3456879-104.2154999
							c-7.223465-25.9237061-1.8844147-54.4766388,11.934433-77.8250885l13.8367462-23.3753357
							c-13.8187866,23.3484497-19.1578979,51.9013214-11.934433,77.8250885
							c10.2115784,35.1841888,21.9934845,69.9196625,35.3457031,104.2154999
							c4.7289276,11.7549438,12.0780334,22.5498047,21.2217865,31.9358521
							c26.9287262,27.6735229,69.3543243,43.0895691,105.6242523,34.8431396
							c17.8029785-4.2443237,35.4803162-8.8834839,53.0230103-13.9175415
							c17.5427246-5.0249939,34.9508667-10.4538269,52.2333374-16.2685242
							C468.0153198,357.1982422,485.8900452,341.1181641,497.64505,321.2782593z"/>
					</g>
					
						<linearGradient id="SVGID_55_" gradientUnits="userSpaceOnUse" x1="347.0469055" y1="262.0905151" x2="367.4890137" y2="406.0368958">
						<stop  offset="0" style="stop-color:#BE9587;stop-opacity:0"/>
						<stop  offset="0.9282051" style="stop-color:#A47985"/>
					</linearGradient>
					<path opacity="0.7" fill="url(#SVGID_55_)" d="M497.64505,321.2782593l-13.8367615,23.3753662
						c-11.7550049,19.8398743-29.6297302,35.9199524-51.120697,43.4126587
						c-17.2825012,5.8056641-34.6906128,11.2344971-52.2333679,16.259552
						c-17.5427246,5.0339966-35.2200623,9.6731567-53.0229797,13.9174805
						c-13.8995972,3.1585999-28.714447,2.844574-43.2062988-0.3140259
						c-23.1599731-5.0250244-45.5213318-17.3004456-62.0949707-34.1881104l13.5137787-23.7163391
						c16.2505646,16.7082214,38.1542816,28.9387817,60.9373932,34.2060852
						c14.9674072,3.4546814,30.311676,3.9033203,44.6868591,0.6370544
						c17.8029785-4.2443237,35.4803162-8.8834839,53.0230103-13.9175415
						c17.5427246-5.0249939,34.9508667-10.4538269,52.2333374-16.2685242
						C468.0153198,357.1982422,485.8900452,341.1181641,497.64505,321.2782593z"/>
					
						<linearGradient id="SVGID_56_" gradientUnits="userSpaceOnUse" x1="369.2521667" y1="276.3600159" x2="390.6655579" y2="368.4376221">
						<stop  offset="0" style="stop-color:#BE9587;stop-opacity:0"/>
						<stop  offset="0.9282051" style="stop-color:#A47985"/>
					</linearGradient>
					<path fill="url(#SVGID_56_)" d="M497.6479797,321.2819519l-13.8372192,23.3687744
						c-7.8564758,13.2591858-18.4496765,24.8315125-31.0246582,33.3013306
						c-6.2403564,4.1996155-12.9642639,7.6323547-20.1011963,10.1095886
						c-17.2817383,5.8156433-34.6933289,11.2420349-52.2346191,16.267334
						c-17.5413208,5.0252991-35.2124634,9.6730957-53.0132446,13.9197998
						c-2.6305847,0.6016235-5.2966003,1.0734558-7.9862366,1.4155884
						c-11.5133362,1.5099182-23.474884,0.8257751-35.2241821-1.7341309
						c3.8928223-7.5025024,8.0805359-15.5358887,12.3508606-23.6990051
						c11.4307556,2.642395,23.0974731,3.5271301,34.3630676,2.3356628c3.47995-0.3656921,6.9363098-0.9318848,10.3218994-1.6987
						c17.8126526-4.2466736,35.4837341-8.8826599,53.0250244-13.9197693
						c17.5413208-5.0252991,34.9529114-10.4516602,52.2347107-16.2673645
						c4.8719482-1.6986084,9.566925-3.8338318,14.0377502-6.3700256
						C475.8127441,349.7114258,488.552948,336.6173401,497.6479797,321.2819519z"/>
					
						<linearGradient id="SVGID_57_" gradientUnits="userSpaceOnUse" x1="510.7658691" y1="341.88797" x2="412.0328674" y2="380.522644">
						<stop  offset="0" style="stop-color:#9A776C;stop-opacity:0"/>
						<stop  offset="0.9282051" style="stop-color:#88606D"/>
					</linearGradient>
					<path fill="url(#SVGID_57_)" d="M460.5599365,358.3110352l-7.7738342,19.6410217
						c-6.2403564,4.1996155-12.9642639,7.6323547-20.1011963,10.1095886
						c-17.2817383,5.8156433-34.6933289,11.2420349-52.2346191,16.267334
						c-17.5413208,5.0252991-35.2124634,9.6730957-53.0132446,13.9197998
						c-2.6305847,0.6016235-5.2966003,1.0734558-7.9862366,1.4155884l11.4897461-23.0974731
						c3.47995-0.3656921,6.9363098-0.9318848,10.3218994-1.6987c17.8126526-4.2466736,35.4837341-8.8826599,53.0250244-13.9197693
						c17.5413208-5.0252991,34.9529114-10.4516602,52.2347107-16.2673645
						C451.3941345,362.9824524,456.0891113,360.847229,460.5599365,358.3110352z"/>
				</g>
			</g>
		</g>
	</g>
	
		<linearGradient id="SVGID_58_" gradientUnits="userSpaceOnUse" x1="201.7866058" y1="526.9561768" x2="240.5508728" y2="430.6511841" gradientTransform="matrix(0.9189417 -0.1202792 0.0952288 0.9918497 -79.0970459 -63.6481934)">
		<stop  offset="0" style="stop-color:#F7D963;stop-opacity:0"/>
		<stop  offset="0.4410256" style="stop-color:#CD3648"/>
		<stop  offset="1" style="stop-color:#A83A7A"/>
	</linearGradient>
	<path fill="url(#SVGID_58_)" d="M215.4152985,408.2461853c-5.443924,9.0449829-57.3329163,3.350647-75.1987305-28.5062866
		c-12.6643448-22.5828247-11.966629-48.68396-3.3325806-60.736969c1.4207916-1.9851685,3.0559845-3.5862732,4.8837585-4.7304077
		c2.7295532-1.7176208,5.8868561-2.4041138,9.3918304-1.8053589c6.0471497,1.0317383,10.3925934,3.1651917,13.9690094,7.1561584
		c5.7272186,6.379425,9.476059,17.5188293,15.0576782,36.5334778c8.0224304,27.3209229,33.6666412,39.9804077,35.7212677,48.8040771
		C216.179718,406.1138916,216.0432281,407.1994934,215.4152985,408.2461853z"/>
	<g>
		
			<linearGradient id="SVGID_59_" gradientUnits="userSpaceOnUse" x1="156.7116852" y1="551.3703613" x2="108.6408997" y2="593.8945313" gradientTransform="matrix(0.9591375 -0.2829403 0.2829403 0.9591375 -120.2030029 -140.7650909)">
			<stop  offset="0" style="stop-color:#F7D963"/>
			<stop  offset="0.5179487" style="stop-color:#CD3648"/>
			<stop  offset="1" style="stop-color:#A83A7A"/>
		</linearGradient>
		<path fill="url(#SVGID_59_)" d="M230.8599091,389.1407776c-4.1592407,9.8770447-60.5998383,13.5646667-85.4965973-14.5899963
			c-17.6484299-19.958374-21.6736832-45.7723999-14.6582184-59.1812744c1.154129-2.208252,2.6073456-4.0769043,4.3497009-5.5302734
			c2.6003113-2.1793213,5.8457947-3.4203796,9.6973572-3.4587097c6.6448669-0.0674438,11.6742401,1.2541504,16.2220306,4.5416565
			c7.2806244,5.2531128,13.318924,15.5453186,22.7532806,33.2602234
			c13.5583649,25.4530029,43.2513275,33.320343,47.0575714,41.6368103
			C231.2863617,386.9052734,231.339035,387.9981689,230.8599091,389.1407776z"/>
		
			<linearGradient id="SVGID_60_" gradientUnits="userSpaceOnUse" x1="138.3892212" y1="514.8074341" x2="110.5389023" y2="555.2692261" gradientTransform="matrix(0.9591375 -0.2829403 0.2829403 0.9591375 -120.2030029 -140.7650909)">
			<stop  offset="0" style="stop-color:#FFF8B5"/>
			<stop  offset="1" style="stop-color:#E5A65E"/>
		</linearGradient>
		<path fill="url(#SVGID_60_)" d="M151.2702637,310.9491577c-8.6737213,2.0344849,4.0133667,23.9301147,9.932663,20.7872925
			C167.1222229,328.5935974,156.699234,309.6757507,151.2702637,310.9491577z"/>
		
			<linearGradient id="SVGID_61_" gradientUnits="userSpaceOnUse" x1="168.2960205" y1="535.3926392" x2="140.4457092" y2="575.8544312" gradientTransform="matrix(0.9591375 -0.2829403 0.2829403 0.9591375 -120.2030029 -140.7650909)">
			<stop  offset="0" style="stop-color:#FFF8B5"/>
			<stop  offset="1" style="stop-color:#E5A65E"/>
		</linearGradient>
		<path fill="url(#SVGID_61_)" d="M163.0662689,336.8206482c-6.5836334,3.0684204,10.4108124,28.1055908,34.4084625,34.4997253
			c18.6236267,4.9622192-7.1407013-10.8640442-14.791626-20.1635742
			C175.0321655,341.8572388,168.4155579,334.3275146,163.0662689,336.8206482z"/>
		
			<linearGradient id="SVGID_62_" gradientUnits="userSpaceOnUse" x1="160.5345917" y1="544.9460449" x2="108.7633362" y2="604.5753784" gradientTransform="matrix(0.9591375 -0.2829403 0.2829403 0.9591375 -120.2030029 -140.7650909)">
			<stop  offset="0.0153846" style="stop-color:#9A2529;stop-opacity:0"/>
			<stop  offset="1" style="stop-color:#802561"/>
		</linearGradient>
		<path fill="url(#SVGID_62_)" d="M230.8599091,389.1407776c-4.1592407,9.8770447-60.5998383,13.5646667-85.4965973-14.5899963
			c-17.6484299-19.958374-21.6736832-45.7723999-14.6582184-59.1812744c1.154129-2.208252,2.6073456-4.0769043,4.3497009-5.5302734
			c1.1073914,12.8258057,13.2929993,27.9212646,27.4273987,40.0269165
			c18.4038086,15.7705383,1.0596619,10.0337524-8.8002777,1.3831787s20.8239288,34.1982422,77.0132141,34.5682678
			c0.0300751,0.00177,0.0599213-0.0001831,0.0899048,0.0016174
			C231.2863617,386.9052734,231.339035,387.9981689,230.8599091,389.1407776z"/>
	</g>
	<g>
		<g>
			
				<linearGradient id="SVGID_63_" gradientUnits="userSpaceOnUse" x1="309.5778809" y1="87.8779373" x2="273.7982483" y2="42.2956772">
				<stop  offset="0" style="stop-color:#7C111E"/>
				<stop  offset="1" style="stop-color:#370831"/>
			</linearGradient>
			<path fill="url(#SVGID_63_)" d="M280.4165955,82.0419617c26.3511658-4.154686,28.3323975-36.4783592,26.2882996-48.366703
				c-1.5229492,0.7911873-3.0969849,1.5571823-4.7110901,2.2999115
				c-15.6625366,7.2324791-34.8562622,12.3135109-44.8211365,14.6826859
				c-4.1692047,0.9907608-6.7243958,1.5088043-6.7243958,1.5088043S254.0652924,86.1966553,280.4165955,82.0419617z"/>
			<g>
				<path fill="#D25B50" d="M280.4165955,82.0419617c8.4826355-1.3374786,14.4290771-5.6013412,18.5396729-11.1554184
					c-1.0075378-0.7766342-2.0246277-1.4932556-3.0540466-2.1305466
					c-10.7128601-6.6599655-22.356781-6.0516243-31.8899536-3.3511353c-3.1078491,0.8802872-5.9721985,1.9837265-8.525116,3.1300659
					C259.6726074,76.5707169,267.1711121,84.1303711,280.4165955,82.0419617z"/>
				
					<linearGradient id="SVGID_64_" gradientUnits="userSpaceOnUse" x1="280.8690796" y1="89.748291" x2="266.9994202" y2="124.0145493" gradientTransform="matrix(0.9992955 -0.0375285 0.0375285 0.9992955 -4.0509162 -17.0827713)">
					<stop  offset="0" style="stop-color:#FBFCFB"/>
					<stop  offset="1" style="stop-color:#4B2419"/>
				</linearGradient>
				<path fill="url(#SVGID_64_)" d="M280.4165955,82.0419617c8.4826355-1.3374786,14.4290771-5.6013412,18.5396729-11.1554184
					c-1.0075378-0.7766342-2.0246277-1.4932556-3.0540466-2.1305466
					c-13.4933167,19.0371246-44.0788574,9.6925888-31.8899536-3.3511353
					c-3.1078491,0.8802872-5.9721985,1.9837265-8.525116,3.1300659
					C259.6726074,76.5707169,267.1711121,84.1303711,280.4165955,82.0419617z"/>
			</g>
			<path fill="#FFFFFF" d="M301.9956055,35.9733238c-0.1613159,4.4589882-1.4526672,8.8172379-4.559845,12.6507492
				c-0.8877869-2.5825615-2.4414368-5.4880219-4.8424683-4.6608276c-2.9659424,1.0492325-2.7238159,7.243515-2.3606567,10.592804
				c-2.8852539,1.6545105-6.3961182,3.046711-10.6130066,4.1161385c-12.5500183,3.2080383-19.208313-1.5738449-22.4567566-8.0102386
				C267.1302185,48.281105,286.3385315,43.2167168,301.9956055,35.9733238z"/>
		</g>
		<g>
			
				<linearGradient id="SVGID_65_" gradientUnits="userSpaceOnUse" x1="224.6638794" y1="33.4593811" x2="217.3782501" y2="59.9525528">
				<stop  offset="0" style="stop-color:#7C111E"/>
				<stop  offset="1" style="stop-color:#370831"/>
			</linearGradient>
			<circle fill="url(#SVGID_65_)" cx="220.8498535" cy="47.3285255" r="15.8533812"/>
			
				<ellipse transform="matrix(0.9939703 -0.1096492 0.1096492 0.9939703 -3.2290146 24.9061069)" fill="#FFFFFF" cx="224.844223" cy="41.8128624" rx="6.132915" ry="6.132915"/>
		</g>
		<g>
			
				<linearGradient id="SVGID_66_" gradientUnits="userSpaceOnUse" x1="331.6990967" y1="8.303978" x2="320.4394836" y2="32.8101654">
				<stop  offset="0" style="stop-color:#7C111E"/>
				<stop  offset="1" style="stop-color:#370831"/>
			</linearGradient>
			<circle fill="url(#SVGID_66_)" cx="326.8355713" cy="18.8893185" r="15.8533812"/>
			
				<ellipse transform="matrix(0.9939703 -0.1096492 0.1096492 0.9939703 0.528379 36.3558769)" fill="#FFFFFF" cx="330.8299255" cy="13.3736534" rx="6.132915" ry="6.132915"/>
		</g>
		<g>
			
				<ellipse transform="matrix(0.9602579 -0.2791141 0.2791141 0.9602579 -0.1354808 101.9755478)" fill="#F286B5" cx="358.0266418" cy="51.4635277" rx="27.68573" ry="12.9667339"/>
			
				<ellipse transform="matrix(0.9602579 -0.2791141 0.2791141 0.9602579 -17.0116196 62.6081238)" fill="#F286B5" cx="211.3470612" cy="91.0415726" rx="27.68573" ry="12.9667339"/>
		</g>
	</g>
</g>
</svg>
