<?xml version="1.0" standalone="no"?><svg xmlns="http://www.w3.org/2000/svg" viewBox="0 0 1440 320"><path fill="#0099ff" fill-opacity="1" d="M0,288L30,277.3C60,267,120,245,180,213.3C240,181,300,139,360,112C420,85,480,75,540,90.7C600,107,660,149,720,149.3C780,149,840,107,900,106.7C960,107,1020,149,1080,144C1140,139,1200,85,1260,58.7C1320,32,1380,32,1410,32L1440,32L1440,0L1410,0C1380,0,1320,0,1260,0C1200,0,1140,0,1080,0C1020,0,960,0,900,0C840,0,780,0,720,0C660,0,600,0,540,0C480,0,420,0,360,0C300,0,240,0,180,0C120,0,60,0,30,0L0,0Z"></path></svg>