<?xml version="1.0" encoding="iso-8859-1"?>
<!-- Generator: Adobe Illustrator 19.2.0, SVG Export Plug-In . SVG Version: 6.00 Build 0)  -->
<svg version="1.1" id="Layer_1" xmlns="http://www.w3.org/2000/svg" xmlns:xlink="http://www.w3.org/1999/xlink" x="0px" y="0px"
	 viewBox="0 0 600 600" enable-background="new 0 0 600 600" xml:space="preserve">
<g>
	<g>
		<g>
			<g enable-background="new    ">
				<g>
					
						<linearGradient id="SVGID_1_" gradientUnits="userSpaceOnUse" x1="330.224823" y1="196.4924927" x2="160.4983826" y2="558.4091797">
						<stop  offset="0.0564103" style="stop-color:#D63538"/>
						<stop  offset="1" style="stop-color:#98292A"/>
					</linearGradient>
					<path fill="url(#SVGID_1_)" d="M571.4160156,383.1900024c-17.2861328,15.1728516-34.0914917,30.8772583-50.4158936,47.1130371
						c-6.6816406,6.6436768-14.7805786,10.6425781-25.5117188,14.008667
						c-4.3278503,1.3540649-9.0986633,2.6195068-14.3629456,3.897644
						c-28.0805664,6.2387085-97.7441711,21.4115601-155.9047546,38.5585327
						c-58.6287842,16.4509888-123.5848236,39.8114014-149.3622437,48.4797974
						c-4.0115662,1.2654419-7.7320251,2.3411255-11.2120361,3.2016602
						c-19.1337585,4.6568604-31.4593353,2.4042969-48.7454834-15.9574585
						c-11.9586182-12.3129883-24.4107819-32.1680603-38.8369827-62.6656189c0,0,0,0,0-0.0126648
						c-10.5286407-22.2593994-22.0949707-50.1881104-35.2683792-85.000946
						C24.97756,330.7239685,13.4239006,295.8605652,6.7929006,268.096344
						c-5.8843446-24.6638031-7.8837934-43.7342987-6.2387104-58.6920624
						c1.0250199-10.9335938,3.3028331-19.1970062,7.1245484-25.7520905
						c12.7051954-21.7279205,25.9546051-43.0129852,39.7860794-63.8678207
						c-4.1633377,6.2893753-6.8081818,14.3250198-8.2128258,25.0055161
						c-2.4170723,16.197876-0.3922882,37.508255,6.3778915,65.9431152
						c6.2007866,26.0558624,16.3877296,58.0973206,30.7886734,97.6683044
						c13.1607437,36.4579163,24.7524033,65.3989868,35.3823013,88.1772766
						c13.2873383,28.4475098,25.0813599,47.3029175,36.635025,59.3500366
						c15.9575043,17.1596375,28.0173035,20.8041687,45.4173889,18.3239136
						c4.9985809-0.7086487,10.4147186-1.9235229,16.4763184-3.4547424
						c27.0808105-7.4915161,95.3018188-27.7135315,156.6134033-41.2286377
						c60.8685913-14.2744446,133.4934082-25.916687,162.7508545-30.7001038
						c1.0376587-0.1898499,2.0626831-0.3796997,3.0496826-0.569458
						C550.1436157,394.9714355,562.0263062,391.4408264,571.4160156,383.1900024z"/>
				</g>
			</g>
		</g>
		
			<linearGradient id="SVGID_2_" gradientUnits="userSpaceOnUse" x1="20.7070045" y1="155.6450195" x2="41.8842888" y2="293.6895447">
			<stop  offset="0.0564103" style="stop-color:#E58187"/>
			<stop  offset="1" style="stop-color:#A22C2F;stop-opacity:0"/>
		</linearGradient>
		<path fill="url(#SVGID_2_)" d="M45.6298828,210.7330017C30.6721325,229.3606262,16.916584,250.3545685,6.7929006,268.096344
			c-5.8843446-24.6638031-7.8837934-43.7342987-6.2387104-58.6920624
			c1.0250199-10.9335938,3.3028331-19.1970062,7.1245484-25.7520905
			c12.7051954-21.7279205,25.9546051-43.0129852,39.7860794-63.8678207
			c-4.1633377,6.2893753-6.8081818,14.3250198-8.2128258,25.0055161
			C36.834919,160.9877625,38.8597031,182.2981415,45.6298828,210.7330017z"/>
		
			<linearGradient id="SVGID_3_" gradientUnits="userSpaceOnUse" x1="239.1779175" y1="230.3953857" x2="316.2631836" y2="403.5869446">
			<stop  offset="0" style="stop-color:#A22C2F;stop-opacity:0"/>
			<stop  offset="0.948718" style="stop-color:#782323"/>
		</linearGradient>
		<path opacity="0.7" fill="url(#SVGID_3_)" d="M571.4144287,383.1890259
			c-17.2891235,15.1746216-34.0946655,30.8744507-50.4163818,47.1133118
			c-6.6752319,6.6475525-14.7738953,10.6416321-25.5122986,14.0137634
			c-4.3257446,1.3543701-9.093689,2.6120605-14.3591919,3.8973389
			c-28.0828552,6.2329712-97.7509766,21.4076233-155.9066772,38.5586548
			c-58.6257019,16.4460754-123.5810547,39.8023682-149.3558502,48.4815063
			c-4.0217438,1.2576904-7.7394104,2.3356323-11.2220612,3.1924438
			c-19.1273193,4.6574707-31.4549866,2.4048462-48.7441788-15.9485474
			c-11.9545822-12.3138428-24.4065933-32.173584-38.8349762-62.6749878c0,0,0,0,0-0.0138245
			c10.2131271-18.546814,22.3750458-40.6592712,34.7441406-63.2278137
			c13.2813568,28.4421692,25.070015,47.3068237,36.6237564,59.3443298
			c15.9624939,17.1647644,28.0275879,20.813324,45.4272766,18.3257141c4.9891968-0.7048645,10.406723-1.921051,16.4738464-3.4550781
			c27.0738983-7.4906616,95.3046417-27.7097473,156.611496-41.2259521
			C427.8078613,415.2935181,500.4334412,403.6568604,529.690979,398.875c1.036499-0.193512,2.0592651-0.3869324,3.0543213-0.5804138
			C550.1450806,394.9776611,562.0304565,391.4396973,571.4144287,383.1890259z"/>
		
			<linearGradient id="SVGID_4_" gradientUnits="userSpaceOnUse" x1="265.1911316" y1="299.2513428" x2="344.2786255" y2="459.4285278">
			<stop  offset="0" style="stop-color:#8D3335;stop-opacity:0"/>
			<stop  offset="0.948718" style="stop-color:#571729"/>
		</linearGradient>
		<path opacity="0.7" fill="url(#SVGID_4_)" d="M532.7453003,398.2945862
			c-14.7324219,18.187439-27.6544189,34.1361084-37.259552,46.0215149
			c-4.3257446,1.3543701-9.093689,2.6120605-14.3591919,3.8973389
			c-28.0828552,6.2329712-97.7509766,21.4076233-155.9066772,38.5586548
			c-58.6257019,16.4460754-123.5810547,39.8023682-149.3558502,48.4815063
			c-4.0217438,1.2576904-7.7394104,2.3356323-11.2220612,3.1924438
			c7.5319824-18.2289429,17.5516968-40.1893005,29.2160187-64.1951294c4.9891968-0.7048645,10.406723-1.921051,16.4738464-3.4550781
			c27.0738983-7.4906616,95.3046417-27.7097473,156.611496-41.2259521
			C427.8078613,415.2935181,500.4334412,403.6568604,529.690979,398.875
			C530.727478,398.681488,531.7502441,398.4880676,532.7453003,398.2945862z"/>
		
			<linearGradient id="SVGID_5_" gradientUnits="userSpaceOnUse" x1="303.7701416" y1="534.6268921" x2="259.2765198" y2="327.9469299">
			<stop  offset="0.0358974" style="stop-color:#F4CEA6"/>
			<stop  offset="1" style="stop-color:#DB4D51;stop-opacity:0"/>
		</linearGradient>
		<path fill="url(#SVGID_5_)" d="M520.9980469,430.3023376c-6.6752319,6.6475525-14.7738953,10.6416321-25.5122986,14.0137634
			c-4.3257446,1.3543701-9.093689,2.6120605-14.3591919,3.8973389
			c-28.0828552,6.2329712-97.7509766,21.4076233-155.9066772,38.5586548
			c-58.6257019,16.4460754-123.5810547,39.8023682-149.3558502,48.4815063
			c-4.0217438,1.2576904-7.7394104,2.3356323-11.2220612,3.1924438
			c-19.1273193,4.6574707-31.4549866,2.4048462-48.7441788-15.9485474
			c-11.9545822-12.3138428-24.4065933-32.173584-38.8349762-62.6749878c0,0,0,0,0-0.0138245
			c-10.5311356-22.2507019-22.0987091-50.1814575-35.2694016-84.994751
			C10.0481691,291.5881042-2.9428499,241.2132263,0.5536388,209.3988953
			c6.6061378,91.2277222,95.1665573,281.6297607,133.3796082,306.22995
			c38.2131348,24.6000977,59.2890625-3.6624146,175.0615692-34.4954529
			C424.7812195,450.3003235,503.0178223,447.7850342,520.9980469,430.3023376z"/>
	</g>
	<g>
		<g>
			
				<linearGradient id="SVGID_6_" gradientUnits="userSpaceOnUse" x1="321.634552" y1="169.4293365" x2="306.5423889" y2="497.6837769">
				<stop  offset="0.0564103" style="stop-color:#DE2D35"/>
				<stop  offset="1" style="stop-color:#A22C2F"/>
			</linearGradient>
			<path fill="url(#SVGID_6_)" d="M557.4250488,93.1319199c19.9957275,24.754715,33.6077271,66.619957,40.0523071,137.5646973
				c6.2141724,70.7224274,0.491394,110.0466156-12.1625366,133.6919098
				c-12.2387695,23.8202515-26.489624,29.1665039-55.6260986,34.4903564
				c-29.2559814,4.7748108-101.8822327,16.4096069-162.7445984,30.6846008
				c-61.313446,13.5291443-129.5323486,33.7458496-156.6075592,41.2303467
				c-27.3022766,6.9314575-41.3670349,7.2044067-61.9123383-14.8730469
				c-20.797493-21.6795959-42.3903275-65.5151367-72.0098648-147.5157776
				c-30.1006393-82.7288513-41.813961-132.5601044-37.1673889-163.6202545
				c4.1486588-31.0819016,18.5545044-39.7994614,51.2327118-48.1758575
				c32.4287872-8.9677963,117.226799-23.9149857,192.9346619-30.2927856
				c75.3048401-7.2607422,164.3711853-7.9593887,200.2731323-5.3182449
				C519.4755249,62.9846725,537.9927979,68.3461304,557.4250488,93.1319199z"/>
			<g>
				
					<linearGradient id="SVGID_7_" gradientUnits="userSpaceOnUse" x1="324.8477478" y1="213.5660858" x2="264.0384827" y2="466.477356">
					<stop  offset="0" style="stop-color:#A22C2F;stop-opacity:0"/>
					<stop  offset="0.948718" style="stop-color:#9A2325"/>
				</linearGradient>
				<path fill="url(#SVGID_7_)" d="M304.3097839,331.9848633c5.6110229,4.6850281,10.7521362,10.2546387,14.8153076,16.8330994
					c20.4955139,33.1687012-45.3581848,55.7371521-106.6372986,25.9959717
					c-54.4243011-26.424408-43.0502319-76.3156738,14.6632996-71.1192322
					C126.8849335,257.2032166,70.6777649,189.9260864,49.3393211,160.0604553
					c0.2901726,29.4371948,12.2032509,75.1685638,37.4667778,144.5878296
					c28.4835892,78.8447266,49.9465408,123.1388245,69.5989456,143.6204224l0.1105804,0.1244202
					c12.0236664,12.921936,19.7491608,15.5063171,28.3039246,15.5063171c6.7581482,0,14.8844757-1.8104553,22.6790619-3.7867432
					c4.9338531-1.3681946,11.208313-3.151001,18.5607147-5.237854
					c32.9336853-9.3425293,88.0489807-24.9732666,138.4378052-36.0986023
					c58.584198-13.7373657,126.6628723-24.8212585,159.3894043-30.1558838l3.9248657-0.6357422
					c28.1796265-5.1549377,37.8538208-9.5636292,47.6661987-28.6494446l0.0828857-0.1658325
					c2.6950073-5.0444336,4.9891968-10.8765564,6.8687744-17.5379333
					C470.8304138,360.413208,378.8425903,352.6876221,304.3097839,331.9848633z M154.9124298,308.4074707
					c-20.7304382-4.021759-29.8932877-27.986084-9.6741943-26.0097961
					C177.4809875,285.5348206,175.642868,312.4291382,154.9124298,308.4074707z"/>
				
					<linearGradient id="SVGID_8_" gradientUnits="userSpaceOnUse" x1="253.8179779" y1="196.4878998" x2="193.0087128" y2="449.3991394">
					<stop  offset="0" style="stop-color:#A22C2F;stop-opacity:0"/>
					<stop  offset="0.948718" style="stop-color:#9A2325"/>
				</linearGradient>
				<path fill="url(#SVGID_8_)" d="M228.6160431,267.2741394c-32.2983093-6.3391418-10.5955505,29.0267334,13.820282,26.2626648
					C266.8521729,290.7727661,254.4139099,272.3374634,228.6160431,267.2741394z"/>
			</g>
			
				<linearGradient id="SVGID_9_" gradientUnits="userSpaceOnUse" x1="314.29953" y1="108.6742096" x2="319.9907837" y2="297.4345398">
				<stop  offset="0.0564103" style="stop-color:#E26769"/>
				<stop  offset="1" style="stop-color:#DB4D51;stop-opacity:0"/>
			</linearGradient>
			<path fill="url(#SVGID_9_)" d="M583.1029053,204.5753937c-24.2113647-12.4216309-55.888916-18.7899323-88.0385132-18.4768829
				c-57.4636841-0.9925995-211.8613892,8.0851135-304.1120605,32.2841797
				c-62.907135,15.1616058-97.1244659,46.0153198-112.34758,64.0123901
				c-8.3339539-24.3787231-14.9695549-45.7854309-19.7022324-64.4066772
				c-7.7751732-30.4794769-10.488121-53.5281677-7.9752731-70.1918182
				c3.5055122-24.9943619,13.4232559-31.7318726,43.684166-39.6191559
				c33.5320816-9.5392151,123.1328354-24.9146652,191.081543-30.6877213
				c67.5855713-6.9450455,161.2938538-8.6932907,198.3005371-5.9680557
				c9.5509033,0.4934464,16.3716431,1.1593628,22.2578735,2.104805
				c16.2063293,2.6057892,27.7198181,7.4619522,41.2278748,24.6454773c0.0394897,0.0498276,0.0788574,0.0995941,0.1182861,0.1494293
				c7.8606567,9.688797,14.6554565,22.5345612,20.3821411,38.8401108
				C574.3448486,155.3118896,579.3787842,177.6152344,583.1029053,204.5753937z"/>
			
				<linearGradient id="SVGID_10_" gradientUnits="userSpaceOnUse" x1="307.7826233" y1="49.3130722" x2="310.0402527" y2="235.1895752">
				<stop  offset="0.0564103" style="stop-color:#EFBAB6"/>
				<stop  offset="1" style="stop-color:#DB4D51;stop-opacity:0"/>
			</linearGradient>
			<path fill="url(#SVGID_10_)" d="M567.9796753,137.2614746c-22.4908447-6.7284393-58.8735046-12.3563004-121.8220215-13.7116318
				c-119.4328003-4.6302948-280.2492981,32.2069626-330.4997253,48.8481064
				c-29.3113937,8.4167328-47.1359024,29.2164612-56.7554016,45.5904541
				c-7.7751732-30.4794769-10.488121-53.5281677-7.9752731-70.1918182
				c3.5055122-24.9943619,13.4232559-31.7318726,43.684166-39.6191559
				c33.5320816-9.5392151,123.1328354-24.9146652,191.081543-30.6877213
				c67.5855713-6.9450455,161.2938538-8.6932907,198.3005371-5.9680557
				c9.5509033,0.4934464,16.3716431,1.1593628,22.2578735,2.104805
				c16.2063293,2.6057892,27.7198181,7.4619522,41.2278748,24.6454773c0.0394897,0.0498276,0.0788574,0.0995941,0.1182861,0.1494293
				C555.4581909,108.1101608,562.2529907,120.955925,567.9796753,137.2614746z"/>
			
				<linearGradient id="SVGID_11_" gradientUnits="userSpaceOnUse" x1="450.3901978" y1="14.2748985" x2="305.7086487" y2="263.9465637">
				<stop  offset="0.0358974" style="stop-color:#F6DCDD"/>
				<stop  offset="1" style="stop-color:#DB4D51;stop-opacity:0"/>
			</linearGradient>
			<path fill="url(#SVGID_11_)" d="M575.5604858,359.169342l-0.0828857,0.1658325
				c-0.6495361,1.2576294-1.2991333,2.4600525-1.9486084,3.5932617
				c19.3760376-57.6443787,5.3760986-180.8107758-20.647522-229.513443
				c-26.93573-50.3611374-90.2741394-56.2762604-236.3269348-47.9840851
				c-146.0527802,8.3060074-251.5568848,34.3572159-251.5568848,34.3572159s0.055336-0.8015213,0.3593445-2.2112122v-0.0138397
				c6.2882156-3.9387436,15.1746445-6.9930573,27.8617477-10.2407913l0.2072525-0.055336
				c30.1973801-8.3474197,113.3401871-23.3977356,190.9134521-29.9347076
				c43.4924011-4.1875839,98.3866272-6.6890564,146.9787292-6.6890564c21.158844,0,39.4707336,0.4975128,51.5634766,1.3820343
				l0.193512,0.0138321c33.76297,1.8657074,48.7580261,6.3711319,65.6463928,27.9169998l0.0967407,0.1243286
				c19.4865723,24.1025848,31.7866211,67.1666489,37.6464233,131.6106567
				C591.9099121,293.5920715,588.3442993,335.3016968,575.5604858,359.169342z"/>
			<g>
				
					<linearGradient id="SVGID_12_" gradientUnits="userSpaceOnUse" x1="398.6102905" y1="160.2487488" x2="387.0992432" y2="74.1659927">
					<stop  offset="0" style="stop-color:#A22C2F;stop-opacity:0"/>
					<stop  offset="0.948718" style="stop-color:#9A2325"/>
				</linearGradient>
				<path fill="url(#SVGID_12_)" d="M426.5605469,124.5474396c1.1243286,8.3142853-12.3551636,17.0003815-30.1072693,19.4009552
					s-33.0544739-2.3934326-34.178772-10.7077026c-1.1243286-8.3142776,12.3551636-17.0003815,30.1072693-19.4009552
					S425.4362183,116.2331619,426.5605469,124.5474396z"/>
				
					<linearGradient id="SVGID_13_" gradientUnits="userSpaceOnUse" x1="222.2184906" y1="183.8360291" x2="210.707428" y2="97.7532654">
					<stop  offset="0" style="stop-color:#A22C2F;stop-opacity:0"/>
					<stop  offset="0.948718" style="stop-color:#9A2325"/>
				</linearGradient>
				<path fill="url(#SVGID_13_)" d="M249.7478638,144.9873047c1.1243134,8.3142853-12.3551636,17.0003815-30.1072693,19.4009552
					s-33.0544586-2.3934326-34.1787872-10.7077026c-1.1243134-8.31427,12.3551636-17.0003815,30.1072693-19.4009552
					S248.6235504,136.6730347,249.7478638,144.9873047z"/>
			</g>
			
				<linearGradient id="SVGID_14_" gradientUnits="userSpaceOnUse" x1="354.9492493" y1="330.4754333" x2="330.7637634" y2="434.8186035">
				<stop  offset="0" style="stop-color:#A22C2F;stop-opacity:0"/>
				<stop  offset="0.948718" style="stop-color:#782323"/>
			</linearGradient>
			<path fill="url(#SVGID_14_)" d="M576.0684204,360.5336914c-0.0350342,0.0710754-0.0700073,0.1421814-0.1050415,0.2133179
				c-9.7241211,19.3221741-19.3526001,23.3835754-47.2015991,28.309967
				c-30.5736694,4.7746582-106.0480652,16.7290955-163.1289978,29.905304
				c-57.6412964,12.28479-128.9266815,32.7305908-157.2052612,40.4548035
				c-6.9247131,1.7127686-12.0492096,2.7561035-16.5252838,3.3137817
				c-13.1490784,1.6361694-22.7906952-0.2579651-37.1325989-15.6957092
				c-0.0323792-0.0357361-0.0647736-0.0714111-0.0971375-0.1070862
				c-12.8514862-13.4581604-26.0717163-36.6192017-41.0269852-71.5511475
				c25.5743179,3.5791626,79.2947464-10.1059265,140.814209-23.6041565
				c61.2879944-13.9085999,130.3749695-27.6302795,181.3360291-33.6019287
				c80.7615662-9.7434387,128.867157-14.1355896,153.2312927-35.8876038
				C589.2369995,319.301178,584.6574097,344.3894043,576.0684204,360.5336914z"/>
			<g>
				
					<linearGradient id="SVGID_15_" gradientUnits="userSpaceOnUse" x1="516.0270996" y1="97.1811752" x2="497.3696899" y2="181.4849243">
					<stop  offset="0.0358974" style="stop-color:#F6DCDD"/>
					<stop  offset="1" style="stop-color:#DB4D51;stop-opacity:0"/>
				</linearGradient>
				<path fill="url(#SVGID_15_)" d="M518.3814087,110.1876755c-40.8421936-23.6607208-58.0452271,12.8989334-18.427063,38.6968002
					S557.7939453,133.0201874,518.3814087,110.1876755z"/>
				
					<linearGradient id="SVGID_16_" gradientUnits="userSpaceOnUse" x1="458.5040894" y1="84.450676" x2="439.8466797" y2="168.754425">
					<stop  offset="0.0358974" style="stop-color:#F6DCDD"/>
					<stop  offset="1" style="stop-color:#DB4D51;stop-opacity:0"/>
				</linearGradient>
				<path fill="url(#SVGID_16_)" d="M456.190094,92.6819763c-24.4125366-0.6103134-18.4270325,14.7416382,0,15.6629944
					C474.617157,109.2663193,474.617157,93.1426544,456.190094,92.6819763z"/>
			</g>
			<g>
				<g>
					
						<linearGradient id="SVGID_17_" gradientUnits="userSpaceOnUse" x1="361.6470947" y1="226.764267" x2="315.0136108" y2="167.3545227" gradientTransform="matrix(0.9628848 -0.1037065 0.2824701 0.9266834 -57.3541107 -28.3939095)">
						<stop  offset="0" style="stop-color:#8D3335"/>
						<stop  offset="0.948718" style="stop-color:#784545"/>
					</linearGradient>
					<path fill="url(#SVGID_17_)" d="M342.4724426,93.843544c1.7998962,13.1001587-2.1722412,46.9746475-33.3356934,45.1978836
						c-31.1633606-1.7767792-33.6869202-38.7766418-33.6869202-38.7766418s3.040802,0.0566254,7.9773865-0.0236816
						c3.9949951-0.0586777,9.2297668-0.1972733,15.1385803-0.5134125
						c6.7362366-0.3519363,14.3475647-0.9424973,21.9732056-1.8902359
						c5.5215454-0.6830978,11.0549011-1.551918,16.2800903-2.6643677
						C338.7565002,94.7681122,340.6383057,94.3164291,342.4724426,93.843544z"/>
					<path fill="#FFFFFF" d="M320.5390015,97.8374557c0.3722534,3.7279816,0.7528687,9.4575729-0.2880554,10.8600159
						c-1.5641479,2.1171417-17.0355835,2.8901138-17.7711182,1.0717316
						c-0.463623-1.1097336-2.4412842-6.2204666-3.914032-10.0415115
						C305.3020325,99.3757553,312.9133606,98.7851944,320.5390015,97.8374557z"/>
					<g>
						<path fill="#E36A5D" d="M309.1372375,139.0468445c10.0312195,0.5720673,17.2322998-2.5607147,22.3425598-7.4955902
							c-1.1439514-1.0618134-2.3021851-2.0621338-3.4789124-2.9810486
							c-12.2444458-9.5925674-25.9517212-11.6820297-37.2861023-11.0528641
							c-3.6950684,0.2050171-7.115448,0.7043304-10.1722107,1.3223877
							C285.0503235,128.3603516,293.4736328,138.1535187,309.1372375,139.0468445z"/>
						
							<linearGradient id="SVGID_18_" gradientUnits="userSpaceOnUse" x1="304.3109436" y1="-6.239902" x2="288.0866394" y2="33.8436699" gradientTransform="matrix(1.0034447 0.1667871 -0.0059501 0.9174308 4.2577376 72.6520538)">
							<stop  offset="0" style="stop-color:#FCFDFC"/>
							<stop  offset="1" style="stop-color:#8E4A36"/>
						</linearGradient>
						<path fill="url(#SVGID_18_)" d="M309.1372375,139.0468445c10.0312195,0.5720673,17.2322998-2.5607147,22.3425598-7.4955902
							c-1.1439514-1.0618134-2.3021851-2.0621338-3.4789124-2.9810486
							c-16.8157654,17.0547791-52.2653198-0.0590057-37.2861023-11.0528641
							c-3.6950684,0.2050171-7.115448,0.7043304-10.1722107,1.3223877
							C285.0503235,128.3603516,293.4736328,138.1535187,309.1372375,139.0468445z"/>
					</g>
				</g>
				<g>
					
						<linearGradient id="SVGID_19_" gradientUnits="userSpaceOnUse" x1="229.8450928" y1="-11.9988832" x2="221.3095245" y2="19.0395489" gradientTransform="matrix(0.9890001 0.1479145 -0.1479145 0.9890001 16.9095783 55.0851173)">
						<stop  offset="0" style="stop-color:#8D3335"/>
						<stop  offset="0.948718" style="stop-color:#784545"/>
					</linearGradient>
					<circle fill="url(#SVGID_19_)" cx="239.1786041" cy="92.6245499" r="18.5732403"/>
					
						<ellipse transform="matrix(0.0385795 -0.9992555 0.9992555 0.0385795 148.4586182 328.15271)" fill="#FFFFFF" cx="244.7626038" cy="86.9258652" rx="7.1850982" ry="7.1850982"/>
				</g>
				<g>
					
						<linearGradient id="SVGID_20_" gradientUnits="userSpaceOnUse" x1="355.2436218" y1="-41.4700279" x2="342.0523071" y2="-12.7594805" gradientTransform="matrix(0.9890001 0.1479145 -0.1479145 0.9890001 16.9095783 55.0851173)">
						<stop  offset="0" style="stop-color:#8D3335"/>
						<stop  offset="0.948718" style="stop-color:#784545"/>
					</linearGradient>
					<circle fill="url(#SVGID_20_)" cx="366.9100037" cy="78.0391006" r="18.5732403"/>
					
						<ellipse transform="matrix(0.0385795 -0.9992555 0.9992555 0.0385795 285.836792 441.7662354)" fill="#FFFFFF" cx="372.493988" cy="72.340416" rx="7.1850982" ry="7.1850982"/>
				</g>
				<g>
					
						<ellipse transform="matrix(0.9909803 -0.1340079 0.1340079 0.9909803 -12.6555462 54.3485413)" fill="#EFB6AD" cx="397.4055481" cy="121.1872025" rx="32.435585" ry="15.1913509"/>
					
						<ellipse transform="matrix(0.9909803 -0.1340079 0.1340079 0.9909803 -16.9894524 30.8386135)" fill="#EFB6AD" cx="220.5928497" cy="141.6270752" rx="32.435585" ry="15.1913509"/>
				</g>
			</g>
			<g>
				<g>
					
						<linearGradient id="SVGID_21_" gradientUnits="userSpaceOnUse" x1="494.92453" y1="299.5545044" x2="472.3514099" y2="241.9699554" gradientTransform="matrix(0.9994224 -0.033983 0.033983 0.9994224 -16.6499119 -4.5330105)">
						<stop  offset="0" style="stop-color:#A22C2F;stop-opacity:0"/>
						<stop  offset="0.948718" style="stop-color:#9A2325"/>
					</linearGradient>
					<path fill="url(#SVGID_21_)" d="M469.7202454,183.839447c8.3016357,7.6161194,10.07547,42.997818,1.641449,62.731842
						c-8.4339905,19.7340088-19.9867859,16.2802734-19.9969788-13.0485535
						c-0.0102234-29.3288269-14.8317566-43.7888489-14.8317566-43.7888489S457.4792175,172.6091919,469.7202454,183.839447z"/>
					<g>
						
							<linearGradient id="SVGID_22_" gradientUnits="userSpaceOnUse" x1="415.7926025" y1="353.76828" x2="466.9276733" y2="415.2685547" gradientTransform="matrix(0.9720811 -0.2346452 0.2346452 0.9720811 -63.6995125 -59.3966789)">
							<stop  offset="0.0564103" style="stop-color:#DE2D35"/>
							<stop  offset="1" style="stop-color:#A22C2F"/>
						</linearGradient>
						<path fill="url(#SVGID_22_)" d="M452.0354309,250.1498566c14.0350037,2.8041229,34.6651611-34.175827,21.8876648-64.6035767
							c-1.9099121-4.559433-4.7495728-7.8596649-8.0424805-10.0471344
							c-14.9506531-10.0054321-39.1896057,2.8500977-27.7104797,23.155014
							c9.5776978,16.9302521,5.977478,33.4768829,7.2478943,43.1425018
							C445.9872437,246.2668915,447.6043091,249.2640381,452.0354309,250.1498566z"/>
						
							<linearGradient id="SVGID_23_" gradientUnits="userSpaceOnUse" x1="481.3302612" y1="354.6769714" x2="403.245636" y2="398.556366" gradientTransform="matrix(0.9720811 -0.2346452 0.2346452 0.9720811 -63.6995125 -59.3966789)">
							<stop  offset="0.0564103" style="stop-color:#E26769"/>
							<stop  offset="1" style="stop-color:#DB4D51;stop-opacity:0"/>
						</linearGradient>
						<path fill="url(#SVGID_23_)" d="M446.5831299,176.7364349c11.4549866,0.593399,17.6113281,34.9933929,13.7950439,50.3878174
							s-9.8970032,17.0106506-9.678833,0.8301392s-5.4505005-33.1132202-9.0367432-38.2490387
							S439.7295837,176.3813934,446.5831299,176.7364349z"/>
						
							<linearGradient id="SVGID_24_" gradientUnits="userSpaceOnUse" x1="439.0312805" y1="366.4877625" x2="452.506073" y2="422.8054504" gradientTransform="matrix(0.9720811 -0.2346452 0.2346452 0.9720811 -63.6995125 -59.3966789)">
							<stop  offset="0" style="stop-color:#A22C2F;stop-opacity:0"/>
							<stop  offset="0.948718" style="stop-color:#782323"/>
						</linearGradient>
						<path fill="url(#SVGID_24_)" d="M452.0354309,250.1498566c14.0350037,2.8041229,34.6651611-34.175827,21.8876648-64.6035767
							c-1.9099121-4.559433-4.7495728-7.8596649-8.0424805-10.0471344
							c13.0948486,23.2111511,5.3217163,58.5552673-7.6159668,65.3860626
							c-7.4295349,3.9189911-11.0765991,2.7791138-12.8466187,0.9114532
							C445.9872437,246.2668915,447.6043091,249.2640381,452.0354309,250.1498566z"/>
					</g>
				</g>
				<g>
					
						<linearGradient id="SVGID_25_" gradientUnits="userSpaceOnUse" x1="143.5859375" y1="491.0937805" x2="178.8429565" y2="397.8482361" gradientTransform="matrix(0.9403173 -0.3402989 0.3402989 0.9403173 -92.5095901 -121.4161453)">
						<stop  offset="0" style="stop-color:#A22C2F;stop-opacity:0"/>
						<stop  offset="0.948718" style="stop-color:#9A2325"/>
					</linearGradient>
					<path fill="url(#SVGID_25_)" d="M187.5949249,216.813736c-3.8366394,10.5925598,10.9585419,42.7812958,27.5649109,56.3751373
						s25.2509308,5.1874695,11.6922607-20.8191223c-13.5586548-26.0065918-7.1076965-45.6828613-7.1076965-45.6828613
						S193.2521973,201.1946259,187.5949249,216.813736z"/>
					<g>
						
							<linearGradient id="SVGID_26_" gradientUnits="userSpaceOnUse" x1="167.5918427" y1="436.6222229" x2="128.6891479" y2="430.4797058" gradientTransform="matrix(0.9403173 -0.3402989 0.3402989 0.9403173 -92.5095901 -121.4161453)">
							<stop  offset="0.0564103" style="stop-color:#DE2D35"/>
							<stop  offset="1" style="stop-color:#A22C2F"/>
						</linearGradient>
						<path fill="url(#SVGID_26_)" d="M246.3728943,260.6180725c-9.1081543,11.0401917-48.4619751-4.5929871-57.7795868-36.2520447
							c-1.3998566-4.7409515-1.2835083-9.0931396-0.1128082-12.8690948
							c5.2685852-17.2009583,32.1795044-22.5483398,36.108551,0.4434357
							c3.2711029,19.1746063,16.5151062,29.7268372,21.6364594,38.0220032
							C248.6082916,253.7871857,249.2482147,257.1320801,246.3728943,260.6180725z"/>
						
							<linearGradient id="SVGID_27_" gradientUnits="userSpaceOnUse" x1="182.6280518" y1="432.1315918" x2="147.0408173" y2="444.2243347" gradientTransform="matrix(0.9403173 -0.3402989 0.3402989 0.9403173 -92.5095901 -121.4161453)">
							<stop  offset="0.0564103" style="stop-color:#E26769"/>
							<stop  offset="1" style="stop-color:#DB4D51;stop-opacity:0"/>
						</linearGradient>
						<path fill="url(#SVGID_27_)" d="M204.2211456,200.2650452c-8.5047913,7.6965637,8.4548187,38.2519531,21.1384125,47.7744904
							s18.4182587,6.9339905,8.0272522-5.470993c-10.3910065-12.4049683-16.6938477-29.1119995-17.158371-35.3587494
							C215.763916,200.963028,209.3095856,195.6601715,204.2211456,200.2650452z"/>
						
							<linearGradient id="SVGID_28_" gradientUnits="userSpaceOnUse" x1="199.8827667" y1="434.2544556" x2="100.3630142" y2="459.1343994" gradientTransform="matrix(0.9403173 -0.3402989 0.3402989 0.9403173 -92.5095901 -121.4161453)">
							<stop  offset="0" style="stop-color:#A22C2F;stop-opacity:0"/>
							<stop  offset="0.948718" style="stop-color:#782323"/>
						</linearGradient>
						<path fill="url(#SVGID_28_)" d="M246.3728943,260.6180725c-9.1081543,11.0401917-48.4619751-4.5929871-57.7795868-36.2520447
							c-1.3998566-4.7409515-1.2835083-9.0931396-0.1128082-12.8690948
							c4.512558,26.2653656,32.8664703,48.7527924,47.2107849,45.8746185
							c8.2350006-1.6556091,10.3420258-4.8432159,10.5342255-7.4091797
							C248.6082916,253.7871857,249.2482147,257.1320801,246.3728943,260.6180725z"/>
					</g>
				</g>
			</g>
		</g>
		<g>
			<g>
				
					<linearGradient id="SVGID_29_" gradientUnits="userSpaceOnUse" x1="284.8538208" y1="276.3140564" x2="321.8261414" y2="217.1583557">
					<stop  offset="0" style="stop-color:#E7C2B6"/>
					<stop  offset="0.9282051" style="stop-color:#D7ABB9"/>
				</linearGradient>
				<path fill="url(#SVGID_29_)" d="M428.8005066,238.7235413c-8.4199524,6.3209076-16.7338257,12.7361603-24.9534302,19.2694092
					c-6.5449524,5.1769409-13.0073547,10.4483643-19.4226379,15.7786865
					c-0.9906006,0.8254395-1.9812317,1.6509705-2.9717712,2.4882813
					c-32.0409241,26.8167114-62.4779968,55.3551636-91.2523499,85.5210571
					c-10.4248352-43.7393494-21.6987-87.973999-33.8098145-132.6567535
					c-0.5070801-1.8986053-1.0259552-3.7854156-1.5448456-5.6841125
					c-2.6062317-9.5874481-5.2595978-19.1867676-7.9483795-28.8096924
					c-3.2193909-11.5214691-6.4742126-23.0548096-9.8115082-34.6116943
					C303.7619934,185.5028381,367.6315002,211.8478851,428.8005066,238.7235413z"/>
			</g>
			
				<linearGradient id="SVGID_30_" gradientUnits="userSpaceOnUse" x1="316.9665527" y1="306.8500977" x2="334.2625732" y2="190.4949036">
				<stop  offset="0" style="stop-color:#D8A594;stop-opacity:0"/>
				<stop  offset="0.9282051" style="stop-color:#C88B9E"/>
			</linearGradient>
			<path fill="url(#SVGID_30_)" d="M428.8005066,238.7235413c-8.4199524,6.3209076-16.7338257,12.7361603-24.9534302,19.2694092
				c-6.5449524,5.1769409-13.0073547,10.4483643-19.4226379,15.7786865
				c-0.9906006,0.8254395-1.9812317,1.6509705-2.9717712,2.4882813
				c-40.3665771-22.8543701-96.5827026-42.8784485-126.6070099-52.819809
				c-2.6062317-9.5874481-5.2595978-19.1867676-7.9483795-28.8096924
				c-3.2193909-11.5214691-6.4742126-23.0548096-9.8115082-34.6116943
				C303.7619934,185.5028381,367.6315002,211.8478851,428.8005066,238.7235413z"/>
			
				<linearGradient id="SVGID_31_" gradientUnits="userSpaceOnUse" x1="210.4005432" y1="415.051178" x2="395.9409485" y2="88.5000534">
				<stop  offset="0.0358974" style="stop-color:#F4CEA6"/>
				<stop  offset="1" style="stop-color:#DB4D51;stop-opacity:0"/>
			</linearGradient>
			<path fill="url(#SVGID_31_)" d="M428.8028564,238.7255096
				c-53.0836792,41.2950287-140.8148193,136.0884247-140.8148193,136.0884247L237.0878906,160.019043
				c3.3306427,11.5537415,6.5923004,23.0936432,9.8123627,34.6059723c3.2201538,11.526062,6.384964,23.0245514,9.4945221,34.4954681
				c12.1065979,44.6809082,23.3840027,88.9196777,33.8044739,132.6609192
				c29.6583557-31.0956421,61.0856934-60.4637451,94.2267151-88.0075684
				c6.4126282-5.3347168,12.8804932-10.6002197,19.4174805-15.7828369
				C412.0665283,251.4540253,420.3863525,245.0413971,428.8028564,238.7255096z"/>
			
				<linearGradient id="SVGID_32_" gradientUnits="userSpaceOnUse" x1="341.8315735" y1="327.1115417" x2="330.2652893" y2="160.8459167">
				<stop  offset="0" style="stop-color:#D5A99A;stop-opacity:0"/>
				<stop  offset="0.9282051" style="stop-color:#C595A2"/>
			</linearGradient>
			<path display="none" fill="url(#SVGID_32_)" d="M428.8028564,238.7255096
				c-8.4165039,6.3158875-16.7363281,12.7285156-24.9594116,19.2654877
				c-6.5369873,5.1826172-13.0048523,10.4481201-19.4174805,15.7828369
				c-42.2071533-17.4965515-98.08255-39.5537567-128.031189-44.6533508
				c-3.1095581-11.4709167-6.2743683-22.9694061-9.4945221-34.4954681
				c-3.2200623-11.5123291-6.48172-23.0522308-9.8123627-34.6059723
				C303.7569275,185.5035706,367.6343384,211.8451233,428.8028564,238.7255096z"/>
			
				<linearGradient id="SVGID_33_" gradientUnits="userSpaceOnUse" x1="328.0646973" y1="122.9432449" x2="336.3568726" y2="252.8539429">
				<stop  offset="0.0564103" style="stop-color:#B63538"/>
				<stop  offset="1" style="stop-color:#752A3F"/>
			</linearGradient>
			<path fill="url(#SVGID_33_)" d="M428.8022461,238.7234955c-8.419281,6.3127289-16.7402649,12.7363281-24.9618225,19.2692108
				c-50.444397-21.5549469-102.7384033-42.7370911-156.9396667-63.3703461
				c-3.2164154-11.5066986-6.488739-23.0431061-9.8171844-34.6089783
				C303.7546692,185.4989929,367.6277161,211.8384857,428.8022461,238.7234955z"/>
			<g>
				
					<linearGradient id="SVGID_34_" gradientUnits="userSpaceOnUse" x1="345.0949097" y1="218.1053772" x2="333.9806519" y2="211.8438263">
					<stop  offset="0" style="stop-color:#8D3335;stop-opacity:0"/>
					<stop  offset="0.948718" style="stop-color:#571729"/>
				</linearGradient>
				<polygon opacity="0.7" fill="url(#SVGID_34_)" points="329.8122864,196.7138214 314.1364136,219.7259521 
					333.1547546,198.0840759 332.6493835,192.0318298 				"/>
				
					<linearGradient id="SVGID_35_" gradientUnits="userSpaceOnUse" x1="338.5419922" y1="203.6437836" x2="311.2513123" y2="207.6702728">
					<stop  offset="0.0564103" style="stop-color:#DE2D35"/>
					<stop  offset="1" style="stop-color:#A22C2F"/>
				</linearGradient>
				<polygon fill="url(#SVGID_35_)" points="314.1364136,219.7259521 335.0106812,198.8463745 332.6493835,192.0318298 
					333.1547546,198.0840759 				"/>
			</g>
			<g>
				
					<linearGradient id="SVGID_36_" gradientUnits="userSpaceOnUse" x1="386.0670471" y1="229.2108002" x2="379.545166" y2="225.536499">
					<stop  offset="0" style="stop-color:#8D3335;stop-opacity:0"/>
					<stop  offset="0.948718" style="stop-color:#571729"/>
				</linearGradient>
				<polygon opacity="0.7" fill="url(#SVGID_36_)" points="377.0991516,216.6581421 367.9004822,230.1617584 
					379.0605164,217.4622192 378.7639771,213.9107361 				"/>
				
					<linearGradient id="SVGID_37_" gradientUnits="userSpaceOnUse" x1="382.2218018" y1="220.7246704" x2="366.207489" y2="223.0874329">
					<stop  offset="0.0564103" style="stop-color:#DE2D35"/>
					<stop  offset="1" style="stop-color:#A22C2F"/>
				</linearGradient>
				<polygon fill="url(#SVGID_37_)" points="367.9004822,230.1617584 380.1495972,217.9095306 378.7639771,213.9107361 
					379.0605164,217.4622192 				"/>
			</g>
		</g>
		<g>
			
				<linearGradient id="SVGID_38_" gradientUnits="userSpaceOnUse" x1="98.9534531" y1="195.9631195" x2="80.445076" y2="231.6885986" gradientTransform="matrix(0.9946304 0.1034911 -0.1034911 0.9946304 29.7605 61.8552361)">
				<stop  offset="0" style="stop-color:#8D3335;stop-opacity:0"/>
				<stop  offset="0.948718" style="stop-color:#571729"/>
			</linearGradient>
			<polygon opacity="0.7" fill="url(#SVGID_38_)" points="76.3763123,307.6853333 49.3393211,340.588562 78.5736694,313.4891968 
				89.1393433,311.0185547 			"/>
			
				<linearGradient id="SVGID_39_" gradientUnits="userSpaceOnUse" x1="67.6761398" y1="244.1637268" x2="65.3991852" y2="273.9159546" gradientTransform="matrix(0.9946304 0.1034911 -0.1034911 0.9946304 29.7605 61.8552361)">
				<stop  offset="0.0564103" style="stop-color:#DE2D35"/>
				<stop  offset="1" style="stop-color:#A22C2F"/>
			</linearGradient>
			<polygon fill="url(#SVGID_39_)" points="79.7445755,316.4414063 49.3393211,340.588562 78.5736694,313.4891968 
				89.1393433,311.0185547 			"/>
		</g>
		<g>
			
				<linearGradient id="SVGID_40_" gradientUnits="userSpaceOnUse" x1="86.0109406" y1="254.5183411" x2="67.3168564" y2="290.6022644">
				<stop  offset="0" style="stop-color:#8D3335;stop-opacity:0"/>
				<stop  offset="0.948718" style="stop-color:#571729"/>
			</linearGradient>
			<polygon opacity="0.7" fill="url(#SVGID_40_)" points="67.2034912,281.0934753 33.6042633,330.1598816 70.2998047,289.3869934 
				82.9986038,285.8483582 			"/>
			
				<linearGradient id="SVGID_41_" gradientUnits="userSpaceOnUse" x1="55.3482704" y1="291.6188354" x2="60.3452415" y2="319.3439941">
				<stop  offset="0.0564103" style="stop-color:#DE2D35"/>
				<stop  offset="1" style="stop-color:#A22C2F"/>
			</linearGradient>
			<polygon fill="url(#SVGID_41_)" points="33.6042633,330.1598816 71.4774094,292.2771606 82.9986038,285.8483582 
				70.2998047,289.3869934 			"/>
		</g>
		<g>
			
				<linearGradient id="SVGID_42_" gradientUnits="userSpaceOnUse" x1="477.5288696" y1="408.9076233" x2="450.7432251" y2="425.5147095" gradientTransform="matrix(0.999886 -0.0151026 0.0151026 0.999886 -7.4149036 -6.069447)">
				<stop  offset="0" style="stop-color:#8D3335;stop-opacity:0"/>
				<stop  offset="0.948718" style="stop-color:#571729"/>
			</linearGradient>
			<polygon opacity="0.7" fill="url(#SVGID_42_)" points="436.9055481,415.276947 402.9570618,461.1477051 443.664917,413.8288574 
				437.3833618,401.8988037 			"/>
			
				<linearGradient id="SVGID_43_" gradientUnits="userSpaceOnUse" x1="447.9453125" y1="433.134613" x2="409.5429993" y2="448.57901" gradientTransform="matrix(0.999886 -0.0151026 0.0151026 0.999886 -7.4149036 -6.069447)">
				<stop  offset="0.0564103" style="stop-color:#DE2D35"/>
				<stop  offset="1" style="stop-color:#A22C2F"/>
			</linearGradient>
			<polygon fill="url(#SVGID_43_)" points="447.1611023,413.0337219 402.9570618,461.1477051 443.664917,413.8288574 
				437.3833618,401.8988037 			"/>
		</g>
	</g>
</g>
</svg>
